<?xml version="1.0" encoding="UTF-8" standalone="no"?>
<!-- Created with Inkscape (http://www.inkscape.org/) -->

<svg
   version="1.1"
   id="svg2"
   xml:space="preserve"
   width="640.82666"
   height="113.85333"
   viewBox="0 0 640.82666 113.85333"
   sodipodi:docname="OpenStack_Logo_Horizontal.svg"
   inkscape:version="1.1.1 (3bf5ae0d25, 2021-09-20)"
   xmlns:inkscape="http://www.inkscape.org/namespaces/inkscape"
   xmlns:sodipodi="http://sodipodi.sourceforge.net/DTD/sodipodi-0.dtd"
   xmlns="http://www.w3.org/2000/svg"
   xmlns:svg="http://www.w3.org/2000/svg"><defs
     id="defs6" /><sodipodi:namedview
     id="namedview4"
     pagecolor="#ffffff"
     bordercolor="#666666"
     borderopacity="1.0"
     inkscape:pageshadow="2"
     inkscape:pageopacity="0.0"
     inkscape:pagecheckerboard="0"
     showgrid="false"
     inkscape:zoom="1.7321377"
     inkscape:cx="320.12467"
     inkscape:cy="57.15481"
     inkscape:window-width="1920"
     inkscape:window-height="1010"
     inkscape:window-x="-6"
     inkscape:window-y="-6"
     inkscape:window-maximized="1"
     inkscape:current-layer="g8" /><g
     id="g8"
     inkscape:groupmode="layer"
     inkscape:label="ink_ext_XXXXXX"
     transform="matrix(1.3333333,0,0,-1.3333333,0,113.85333)"><g
       id="g10"
       transform="scale(0.1)"><path
         d="M 791.422,853.898 H 81.0664 C 36.4766,853.898 0,817.422 0,772.832 V 581.805 h 197.031 v 31.215 c 0,24.214 19.633,43.847 43.848,43.847 h 390.726 c 24.215,0 43.848,-19.633 43.848,-43.847 v -31.215 h 197.035 v 191.027 c 0,44.59 -36.48,81.066 -81.066,81.066"
         style="fill:#ed1441;fill-opacity:1;fill-rule:nonzero;stroke:none"
         id="path12" /><path
         d="m 675.453,240.879 c 0,-24.215 -19.629,-43.848 -43.844,-43.848 h -390.73 c -24.215,0 -43.848,19.633 -43.848,43.848 v 31.215 H 0 V 81.0664 C 0,36.4766 36.4805,0 81.0664,0 H 791.422 c 44.586,0 81.066,36.4766 81.066,81.0664 V 272.094 H 675.453 v -31.215"
         style="fill:#ed1441;fill-opacity:1;fill-rule:nonzero;stroke:none"
         id="path14" /><path
         d="M 197.031,525.469 H 0 V 328.434 h 197.031 v 197.035"
         style="fill:#ed1441;fill-opacity:1;fill-rule:nonzero;stroke:none"
         id="path16" /><path
         d="M 872.488,525.469 H 675.453 V 328.434 h 197.035 v 197.035"
         style="fill:#ed1441;fill-opacity:1;fill-rule:nonzero;stroke:none"
         id="path18" /><path
         d="m 4750.78,219.652 c -23.05,0 -41.81,18.75 -41.81,41.805 0,23.055 18.76,41.809 41.81,41.809 23.05,0 41.81,-18.754 41.81,-41.809 0,-23.055 -18.76,-41.805 -41.81,-41.805 z m 55.43,41.805 c 0,30.566 -24.87,55.43 -55.43,55.43 -30.56,0 -55.43,-24.864 -55.43,-55.43 0,-30.562 24.87,-55.426 55.43,-55.426 30.56,0 55.43,24.864 55.43,55.426"
         style="fill:#463b35;fill-opacity:1;fill-rule:nonzero;stroke:none"
         id="path20" /><path
         d="m 4760.24,271.195 c 0,-4.886 -3.1,-8.148 -8.85,-8.148 h -8.3 v 16.375 h 8.07 c 5.75,0 9.08,-2.723 9.08,-8.149 z m 11.33,0.309 v 0.312 c 0,5.356 -1.63,9.618 -4.58,12.571 -3.42,3.414 -8.45,5.199 -14.74,5.199 h -20.4 v -54.313 h 11.24 v 17.84 h 7.06 l 10.01,-17.84 h 12.88 l -11.56,20.172 c 5.98,2.633 10.09,7.84 10.09,16.059"
         style="fill:#463b35;fill-opacity:1;fill-rule:nonzero;stroke:none"
         id="path22" /><path
         d="m 1163.9,424.855 v 5.008 c 0,82.7 42.6,143.657 108.58,143.657 64.31,0 110.25,-61.805 110.25,-144.489 v -5.008 c 0,-82.683 -42.6,-144.492 -108.58,-144.492 -64.32,0 -110.25,62.641 -110.25,145.324 z m 313.2,-1.664 v 7.52 c 0,131.129 -86.02,226.34 -202.95,226.34 -117.77,0 -204.63,-96.891 -204.63,-227.188 v -7.504 c 0,-131.132 86.03,-225.511 202.96,-225.511 117.76,0 204.62,96.043 204.62,226.343"
         style="fill:#463b35;fill-opacity:1;fill-rule:nonzero;stroke:none"
         id="path24" /><path
         d="m 1623.21,423.191 v 8.348 c 0,86.863 48.45,141.981 105.23,141.981 56.8,0 102.74,-54.286 102.74,-142.809 v -7.52 c 0,-88.543 -45.11,-141.996 -102.74,-141.996 -56.78,0 -105.23,55.133 -105.23,141.996 z m 303.19,-1.679 v 11.695 c 0,149.512 -83.53,223.844 -172.06,223.844 -63.48,0 -101.9,-36.75 -129.46,-79.356 v 71.004 H 1530.5 V 79.9102 h 94.38 V 272.844 c 26.73,-39.246 65.15,-75.164 129.46,-75.164 89.36,0 172.06,75.164 172.06,223.832"
         style="fill:#463b35;fill-opacity:1;fill-rule:nonzero;stroke:none"
         id="path26" /><path
         d="m 2166.63,577.695 c 55.13,0 86.86,-50.941 91.88,-121.097 h -187.09 c 6.68,75.164 43.43,121.097 95.21,121.097 z m 168.72,-312.371 -49.28,58.477 c -29.23,-28.399 -60.13,-46.781 -101.89,-46.781 -57.63,0 -103.57,40.093 -111.93,114.425 h 277.3 c 0.83,13.364 0.83,26.739 0.83,32.578 0,132.793 -63.47,233.028 -183.75,233.028 -108.58,0 -188.76,-95.211 -188.76,-228.02 v -6.672 c 0,-138.652 88.54,-225.511 202.13,-225.511 65.98,0 115.26,25.886 155.35,68.476"
         style="fill:#463b35;fill-opacity:1;fill-rule:nonzero;stroke:none"
         id="path28" /><path
         d="m 2627.52,657.051 c -60.14,0 -96.05,-34.254 -121.11,-73.5 v 65.148 h -94.38 V 206.031 h 94.38 v 268.102 c 0,60.972 34.25,97.722 83.52,97.722 50.11,0 79.35,-34.238 79.35,-96.042 V 206.031 h 94.38 v 296.5 c 0,94.379 -50.95,154.52 -136.14,154.52"
         style="fill:#463b35;fill-opacity:1;fill-rule:nonzero;stroke:none"
         id="path30" /><path
         d="m 3144.1,332.152 v 0.832 c 0,69.329 -51.79,101.055 -120.28,131.965 -51.78,23.391 -86.86,38.414 -86.86,67.645 v 1.679 c 0,24.223 20.88,43.422 55.96,43.422 35.08,0 71.83,-16.703 105.24,-39.246 l 40.09,69.324 c -41.76,30.063 -94.38,47.598 -143.66,47.598 -82.68,0 -146.16,-50.109 -146.16,-129.449 v -1.68 c 0,-72.652 55.13,-102.73 121.11,-131.113 52.61,-22.563 86.86,-36.75 86.86,-68.496 v -0.832 c 0,-27.567 -22.55,-48.446 -61.81,-48.446 -39.25,0 -81.85,19.215 -121.93,51.778 l -44.27,-67.649 c 50.95,-42.589 111.92,-61.804 164.53,-61.804 85.2,0 151.18,47.613 151.18,134.472"
         style="fill:#463b35;fill-opacity:1;fill-rule:nonzero;stroke:none"
         id="path32" /><path
         d="m 3436.34,218.559 v 77.675 c -15.87,-8.351 -32.58,-12.527 -50.95,-12.527 -30.07,0 -47.61,14.191 -47.61,48.445 V 567.68 h 99.39 v 81.019 h -99.39 V 768.133 H 3243.4 V 648.699 h -48.44 l 15.5,-81.019 h 32.94 V 312.938 c 0,-86.028 49.28,-113.594 114.43,-113.594 31.73,0 56.79,7.519 78.51,19.215"
         style="fill:#463b35;fill-opacity:1;fill-rule:nonzero;stroke:none"
         id="path34" /><path
         d="m 3751.19,354.695 c 0,-50.105 -41.76,-86.859 -96.05,-86.027 -40.92,0.832 -71.82,25.902 -71.82,70.156 v 1.684 c 0,46.765 31.73,74.332 86.02,74.332 31.74,0 60.14,-6.688 81.85,-15.871 z m 46.78,253.91 c -28.4,29.231 -72.66,45.102 -130.29,45.102 -59.31,0 -103.58,-14.207 -146.17,-35.086 l 26.72,-75.164 c 29.24,13.359 64.32,26.734 106.91,26.734 60.14,0 95.22,-30.91 95.22,-90.203 v -18.383 c -30.07,10.032 -60.13,17.536 -101.9,17.536 -93.54,0 -157.02,-46.77 -157.02,-141.981 v -4.176 c 0,-86.027 61.81,-135.304 135.31,-135.304 57.63,0 96.88,25.054 122.77,62.636 v -54.285 h 92.71 V 480.82 c 0,55.118 -15.03,98.555 -44.26,127.785"
         style="fill:#463b35;fill-opacity:1;fill-rule:nonzero;stroke:none"
         id="path36" /><path
         d="m 4243.42,263.66 -50.95,62.641 c -25.89,-25.891 -51.78,-45.106 -90.2,-45.106 -64.32,0 -109.41,57.629 -109.41,143.66 v 4.176 c 0,83.532 45.09,142.824 106.91,142.824 40.08,0 65.98,-20.046 89.36,-44.269 l 52.62,69.324 c -36.75,36.75 -78.51,60.141 -141.98,60.141 -116.1,0 -202.13,-95.211 -202.13,-227.188 v -8.351 c 0,-131.965 83.52,-224.664 198.78,-224.664 67.66,0 111.92,27.55 147,66.812"
         style="fill:#463b35;fill-opacity:1;fill-rule:nonzero;stroke:none"
         id="path38" /><path
         d="m 4532.29,435.785 -66.25,-71.207 88.86,-158.547 h 109.41 l -132.02,229.754"
         style="fill:#463b35;fill-opacity:1;fill-rule:nonzero;stroke:none"
         id="path40" /><path
         d="M 4548.21,648.699 4397.04,454.086 v 354.973 h -94.37 V 206.031 h 94.37 V 333.82 l 263.1,314.879 h -111.93"
         style="fill:#463b35;fill-opacity:1;fill-rule:nonzero;stroke:none"
         id="path42" /></g></g></svg>
