<?xml version="1.0" encoding="UTF-8" standalone="no"?>
<svg
   viewBox="0 0 500.00003 82.866159"
   width="500.00003"
   height="82.866158"
   version="1.1"
   id="svg8"
   sodipodi:docname="Progress-Chef-Primary-Logo-SVG.svg"
   inkscape:version="1.1.1 (3bf5ae0d25, 2021-09-20)"
   xmlns:inkscape="http://www.inkscape.org/namespaces/inkscape"
   xmlns:sodipodi="http://sodipodi.sourceforge.net/DTD/sodipodi-0.dtd"
   xmlns="http://www.w3.org/2000/svg"
   xmlns:svg="http://www.w3.org/2000/svg">
  <defs
     id="defs12" />
  <sodipodi:namedview
     id="namedview10"
     pagecolor="#ffffff"
     bordercolor="#666666"
     borderopacity="1.0"
     inkscape:pageshadow="2"
     inkscape:pageopacity="0.0"
     inkscape:pagecheckerboard="0"
     showgrid="false"
     fit-margin-top="0"
     fit-margin-left="0"
     fit-margin-right="0"
     fit-margin-bottom="0"
     inkscape:zoom="2.9081434"
     inkscape:cx="181.73107"
     inkscape:cy="30.259856"
     inkscape:window-width="1920"
     inkscape:window-height="1010"
     inkscape:window-x="-6"
     inkscape:window-y="-6"
     inkscape:window-maximized="1"
     inkscape:current-layer="svg8" />
  <g
     id="g832"
     transform="matrix(1.3743563,0,0,1.3743563,0,7.1512575e-4)">
    <path
       fill="#4b4e52"
       d="m 360.113,25.952 a 3.734,3.734 0 1 1 3.693,-3.733 3.662,3.662 0 0 1 -3.693,3.733 z m 0,-6.834 a 3.102,3.102 0 1 0 3.02,3.1 2.994,2.994 0 0 0 -3.02,-3.1 z m -0.429,3.795 v 1.244 h -1.101 V 20.24 h 1.836 a 1.308,1.308 0 0 1 1.449,1.367 1.147,1.147 0 0 1 -0.755,1.183 l 0.897,1.367 h -1.224 l -0.755,-1.244 z m 0.613,-1.755 h -0.613 v 0.877 h 0.613 c 0.326,0 0.51,-0.163 0.51,-0.428 a 0.447,0.447 0 0 0 -0.51,-0.449 z"
       id="path2" />
    <path
       fill="#5ce500"
       d="m 48.251,40.442 a 1.985,1.985 0 0 1 -0.898,1.554 L 34.846,49.218 V 21.361 L 10.723,7.433 23.23,0.214 a 1.991,1.991 0 0 1 1.798,0 l 23.223,13.41 z M 29.48,24.455 12.96,14.912 a 2,2 0 0 0 -1.796,0 L 0,21.36 17.423,31.42 17.426,51.542 28.582,45.096 A 1.992,1.992 0 0 0 29.48,43.54 Z M 0,41.48 12.054,48.443 v -13.93 z"
       id="path4" />
    <path
       fill="#4b4e52"
       d="M 74.82,13.614 H 61.676 v 35.6 h 5.833 v -13.97 h 7.36 c 7.966,0 12.353,-3.891 12.353,-10.96 0,-3.207 -1.21,-10.67 -12.4,-10.67 m 6.469,10.769 c 0,4.015 -2.083,5.652 -7.191,5.652 H 67.509 V 18.87 h 7.36 c 4.324,0 6.422,1.804 6.422,5.51 m 23.294,-1.104 0.44,0.213 -0.99,5.262 -0.68,-0.21 a 5.72,5.72 0 0 0 -1.685,-0.26 c -5.45,0 -5.894,4.34 -5.894,9.59 V 49.214 H 90.374 V 23.072 h 5.065 v 3.154 a 6.984,6.984 0 0 1 5.24,-3.485 7.35,7.35 0 0 1 3.906,0.536 m 13.278,-0.732 c -4.252,0 -7.656,1.619 -9.85,4.68 a 15.714,15.714 0 0 0 -2.642,8.965 c 0,8.262 4.9,13.599 12.492,13.599 9.223,0 12.495,-7.43 12.495,-13.791 a 14.623,14.623 0 0 0 -3.05,-9.353 11.804,11.804 0 0 0 -9.445,-4.1 m 0,22.419 c -4.227,0 -6.853,-3.363 -6.853,-8.774 0,-5.47 2.626,-8.868 6.853,-8.868 4.194,0 6.902,3.44 6.902,8.773 0,5.469 -2.646,8.869 -6.902,8.869 m 57.889,-21.687 0.44,0.213 -0.992,5.262 -0.682,-0.21 a 5.688,5.688 0 0 0 -1.684,-0.26 c -5.448,0 -5.89,4.34 -5.89,9.59 v 11.343 h -5.402 V 23.072 h 5.066 v 3.154 a 6.982,6.982 0 0 1 5.24,-3.485 7.345,7.345 0 0 1 3.904,0.536 m 19.399,17.557 -0.1,0.287 a 5.741,5.741 0 0 1 -5.887,3.888 c -4.087,0 -6.718,-2.713 -6.974,-7.12 h 18.484 l 0.068,-0.513 a 15.793,15.793 0 0 0 0.059,-2.08 c -10e-4,-0.17 -0.006,-0.323 -0.006,-0.472 -0.27,-7.318 -5.04,-12.234 -11.871,-12.234 a 11.272,11.272 0 0 0 -9.46,4.536 15.585,15.585 0 0 0 -2.798,9.112 c 0,8.078 5.024,13.507 12.498,13.507 5.782,0 9.764,-2.94 11.216,-8.273 l 0.174,-0.638 z M 182.368,33.2 c 0.454,-3.622 2.935,-5.924 6.459,-5.924 a 6.143,6.143 0 0 1 6.327,5.924 z m -30.664,-7.934 a 9.237,9.237 0 0 0 -6.95,-2.721 c -7.925,0 -11.533,6.974 -11.533,13.453 0,6.649 3.566,13.359 11.533,13.359 a 9.26,9.26 0 0 0 6.744,-2.737 71.174,71.174 0 0 1 -0.081,2.717 c -0.294,4.313 -2.366,6.32 -6.52,6.32 -2.26,0 -4.853,-0.801 -5.354,-3.053 l -0.11,-0.497 h -5.323 l 0.086,0.714 c 0.557,4.609 4.604,7.473 10.558,7.473 5.225,0 8.943,-1.97 10.75,-5.69 a 18.337,18.337 0 0 0 1.313,-7.765 V 23.072 h -5.113 z m -6.612,19.267 c -1.89,0 -6.277,-0.856 -6.277,-8.774 0,-5.204 2.46,-8.437 6.419,-8.437 3.059,0 6.327,2.216 6.327,8.437 0,5.492 -2.42,8.774 -6.47,8.774 m 80.658,-3.188 c 0,4.157 -3.451,8.352 -11.161,8.352 -6.818,0 -10.876,-2.953 -11.421,-8.312 l -0.058,-0.551 h 5.316 l 0.08,0.4 c 0.653,3.222 3.722,3.898 6.184,3.898 2.696,0 5.577,-0.87 5.577,-3.306 0,-1.235 -0.804,-2.111 -2.387,-2.605 -0.94,-0.28 -2.094,-0.604 -3.315,-0.945 -2.103,-0.588 -4.28,-1.201 -5.618,-1.662 -3.316,-1.188 -5.22,-3.501 -5.22,-6.346 0,-5.271 5.133,-7.631 10.216,-7.631 6.799,0 10.317,2.56 10.759,7.827 l 0.045,0.543 -5.24,-0.004 -0.072,-0.415 c -0.527,-3.032 -3.541,-3.485 -5.293,-3.485 -1.511,0 -5.027,0.27 -5.027,2.776 0,1.139 0.973,1.976 2.976,2.557 0.597,0.168 1.487,0.396 2.514,0.662 2.133,0.552 4.79,1.24 6.127,1.703 3.33,1.17 5.018,3.372 5.018,6.544 m 24.949,0 c 0,4.157 -3.451,8.352 -11.158,8.352 -6.82,0 -10.878,-2.953 -11.423,-8.312 l -0.057,-0.551 h 5.317 l 0.079,0.4 c 0.65,3.222 3.722,3.898 6.184,3.898 2.696,0 5.575,-0.87 5.575,-3.306 0,-1.235 -0.804,-2.111 -2.385,-2.605 -0.942,-0.28 -2.096,-0.604 -3.318,-0.945 -2.1,-0.588 -4.276,-1.201 -5.614,-1.662 -3.317,-1.188 -5.22,-3.501 -5.22,-6.346 0,-5.271 5.13,-7.631 10.215,-7.631 6.799,0 10.316,2.56 10.757,7.827 l 0.046,0.543 -5.238,-0.004 -0.073,-0.415 c -0.528,-3.032 -3.54,-3.485 -5.294,-3.485 -1.51,0 -5.026,0.27 -5.026,2.776 0,1.139 0.974,1.976 2.975,2.557 0.598,0.168 1.485,0.396 2.516,0.662 2.132,0.552 4.788,1.24 6.127,1.703 3.326,1.17 5.015,3.372 5.015,6.544 m 4.274,-15.469 a 3.724,3.724 0 1 1 3.683,-3.724 3.653,3.653 0 0 1 -3.683,3.724 m 0,-6.816 a 3.094,3.094 0 1 0 3.011,3.092 2.986,2.986 0 0 0 -3.011,-3.092 m -0.427,3.784 v 1.241 h -1.099 V 20.18 h 1.831 a 1.305,1.305 0 0 1 1.445,1.363 1.144,1.144 0 0 1 -0.753,1.18 l 0.895,1.363 h -1.22 l -0.753,-1.24 z m 0.61,-1.75 h -0.61 v 0.875 h 0.61 c 0.326,0 0.509,-0.163 0.509,-0.427 a 0.446,0.446 0 0 0 -0.51,-0.448 M 279.299,13.7 a 14.576,14.576 0 0 1 9.576,3.022 v 3.192 a 13.607,13.607 0 0 0 -9.52,-3.477 c -7.467,0 -12.94,5.815 -12.94,15.278 0,9.463 5.473,15.277 12.94,15.277 a 13.658,13.658 0 0 0 9.52,-3.534 v 3.25 a 14.571,14.571 0 0 1 -9.576,3.02 c -8.836,0 -15.848,-6.897 -15.848,-18.013 0,-11.116 7.012,-18.015 15.848,-18.015 z m 13.448,-1.539 h 2.851 v 15.791 a 9.861,9.861 0 0 1 8.095,-4.56 c 5.758,0 8.78,3.706 8.78,9.064 v 16.76 h -2.794 V 32.855 c 0,-3.933 -1.995,-6.841 -6.499,-6.841 a 8.473,8.473 0 0 0 -7.582,5.472 v 17.73 h -2.85 z m 35.866,35.059 a 10.13,10.13 0 0 0 7.125,-2.508 v 2.794 a 11.31,11.31 0 0 1 -7.354,2.223 c -7.068,0 -11.8,-5.017 -11.8,-12.94 0,-7.81 4.219,-13.397 10.945,-13.397 6.613,0 10.033,5.016 10.033,12.37 v 1.026 h -18.185 c 0,6.841 3.99,10.433 9.236,10.433 z m -9.121,-12.769 h 15.334 c -0.171,-4.446 -2.28,-8.55 -7.297,-8.55 -4.161,0 -7.354,3.078 -8.037,8.55 z m 33.162,-19.668 a 5.346,5.346 0 0 0 -2.565,-0.627 c -2.68,0 -4.618,1.939 -4.618,5.473 v 4.275 h 5.929 v 2.452 h -5.929 v 22.86 h -2.793 v -22.86 h -4.105 v -2.452 h 4.105 v -4.56 c 0,-4.617 3.021,-7.695 7.126,-7.695 a 7.481,7.481 0 0 1 2.85,0.512 z"
       id="path6" />
  </g>
</svg>
