<?xml version="1.0" encoding="UTF-8" standalone="no"?>
<svg
   width="500"
   height="67.41642"
   version="1.1"
   id="svg13"
   sodipodi:docname="Mesosphere-ar21.svg"
   inkscape:version="1.1.1 (3bf5ae0d25, 2021-09-20)"
   xmlns:inkscape="http://www.inkscape.org/namespaces/inkscape"
   xmlns:sodipodi="http://sodipodi.sourceforge.net/DTD/sodipodi-0.dtd"
   xmlns="http://www.w3.org/2000/svg"
   xmlns:svg="http://www.w3.org/2000/svg">
  <sodipodi:namedview
     id="namedview15"
     pagecolor="#ffffff"
     bordercolor="#666666"
     borderopacity="1.0"
     inkscape:pageshadow="2"
     inkscape:pageopacity="0.0"
     inkscape:pagecheckerboard="0"
     showgrid="false"
     showguides="false"
     inkscape:guide-bbox="true"
     fit-margin-top="0"
     fit-margin-left="0"
     fit-margin-right="0"
     fit-margin-bottom="0"
     inkscape:zoom="3.6213339"
     inkscape:cx="159.47163"
     inkscape:cy="-19.053753"
     inkscape:window-width="1920"
     inkscape:window-height="1010"
     inkscape:window-x="-6"
     inkscape:window-y="-6"
     inkscape:window-maximized="1"
     inkscape:current-layer="svg13">
    <sodipodi:guide
       position="45.587852,66.999247"
       orientation="0,-1"
       id="guide832" />
    <sodipodi:guide
       position="46.298123,45.6496"
       orientation="0,-1"
       id="guide834" />
  </sodipodi:namedview>
  <defs
     id="defs7">
    <linearGradient
       id="A"
       x1="42.632999"
       y1="-2.609"
       x2="78.730003"
       y2="42.891998"
       gradientUnits="userSpaceOnUse"
       gradientTransform="matrix(1.0412516,0,0,0.9464982,-43.437893,-6.2022804)">
      <stop
         offset="0"
         stop-color="#7d58ff"
         id="stop2" />
      <stop
         offset="1"
         stop-color="#ff007d"
         id="stop4" />
    </linearGradient>
  </defs>
  <g
     id="g22659"
     transform="matrix(2.4830747,0,0,2.4830747,0,0.07039916)">
    <path
       d="m 190.47135,0.21998558 h 10.8919 V 2.2802044 h -8.69457 v 6.078526 h 7.03793 v 2.0549356 h -7.03793 v 6.067961 h 8.69092 v 2.054935 H 190.46772 Z M 183.02199,10.580949 c -0.4369,0.179609 -0.90112,0.292305 -1.37445,0.334566 l 5.00084,7.612244 h -2.56141 l -4.98809,-7.571744 h -1.84778 v 7.571744 h -2.19183 V 0.21998558 h 6.10584 a 4.6786108,4.5254375 0 0 1 1.86417,0.36273955 c 1.15053,0.47015267 2.06441,1.35587067 2.54867,2.47050187 0.25121,0.5722831 0.37864,1.1885878 0.375,1.8084143 v 1.4386309 c 0.004,0.6215879 -0.12379,1.2361311 -0.375,1.8084143 -0.48244,1.1146314 -1.39631,2.0003495 -2.54867,2.4705025 z M 177.2511,8.8905136 h 3.823 c 0.35498,0.00174 0.70451,-0.066915 1.0322,-0.2007393 a 2.6396832,2.5532625 0 0 0 0.84469,-0.5564359 c 0.24213,-0.2412386 0.43693,-0.5229784 0.57164,-0.8311307 a 2.6032738,2.5180451 0 0 0 0.20752,-0.9984136 V 4.8810108 A 2.6032738,2.5180451 0 0 0 183.52263,3.8825971 2.8217302,2.7293494 0 0 0 182.95099,3.0514663 2.6942972,2.6060885 0 0 0 182.1063,2.496792 c -0.32769,-0.1338264 -0.67722,-0.2025006 -1.0322,-0.2007392 h -3.823 z M 159.78368,0.22174699 h 10.89189 V 2.2819659 h -8.69094 V 8.360491 h 7.03794 v 2.054937 h -7.03794 v 6.06796 h 8.69094 v 2.054935 h -10.89189 z m -7.12169,0 h 2.19913 V 18.534802 h -2.19913 v -8.124658 h -6.48087 v 8.122896 h -2.20276 V 0.21998558 h 2.20276 V 8.3552085 h 6.4918 z M 138.19291,1.5776177 c 0.4369,0.4226084 0.79007,0.9262174 1.0322,1.4791312 0.25123,0.5722823 0.37865,1.1885878 0.37503,1.8084143 V 7.071534 c 0.004,0.6198266 -0.1238,1.2326093 -0.37503,1.8048927 -0.48789,1.1093478 -1.40176,1.9950663 -2.55231,2.4652193 a 4.7514297,4.5958724 0 0 1 -1.86962,0.360978 h -3.90308 v 6.832178 h -2.20278 V 0.22174699 h 6.09494 c 0.64263,-0.003542 1.27797,0.11973949 1.86962,0.36273955 0.56981,0.23243421 1.08863,0.57052186 1.5292,0.99313116 z m -0.80102,5.4868724 V 4.8810108 c 0.002,-0.3433702 -0.0692,-0.6832184 -0.20753,-0.9984137 -0.27307,-0.6215871 -0.78644,-1.1163924 -1.42907,-1.3822839 a 2.6032738,2.5180451 0 0 0 -1.03222,-0.2007393 h -3.81571 v 7.3692446 h 3.81571 a 2.6032738,2.5180451 0 0 0 1.03222,-0.20074 2.7671161,2.6765233 0 0 0 0.85926,-0.552913 2.6760925,2.5884798 0 0 0 0.57527,-0.8152835 c 0.14018,-0.3204786 0.20753,-0.6656093 0.20025,-1.0125004 z m -13.4642,4.5043079 c 0.28034,0.64624 0.41507,1.343543 0.39686,2.04261 v 0.533543 c 0.004,0.623348 -0.13471,1.241414 -0.4005,1.808414 a 4.9880909,4.8247855 0 0 1 -2.63059,2.458176 c -0.60074,0.243 -1.24155,0.366261 -1.89328,0.362739 h -1.31985 c -0.64262,0.0017 -1.27979,-0.12326 -1.87145,-0.362739 a 4.9698863,4.8071769 0 0 1 -2.62875,-2.458176 c -0.26944,-0.563479 -0.40961,-1.179783 -0.40961,-1.803132 v -1.382282 h 2.20277 v 1.382282 c -0.002,0.345131 0.0727,0.686741 0.22391,0.998415 a 2.8763443,2.7821755 0 0 0 1.511,1.387565 2.7853209,2.6941321 0 0 0 1.06863,0.2025 h 1.15416 a 2.7307068,2.641306 0 0 0 1.06134,-0.2025 c 0.32769,-0.132064 0.6317,-0.324 0.89204,-0.563478 a 2.8035256,2.7117408 0 0 0 0.61349,-0.831131 2.3848172,2.3067405 0 0 0 0.22573,-0.998413 v -0.533544 c 0.0182,-0.48424 -0.0966,-0.963197 -0.33313,-1.391089 -0.2312,-0.376826 -0.54252,-0.704348 -0.91025,-0.956152 -0.41323,-0.281739 -0.86107,-0.515934 -1.33258,-0.693783 q -0.77369,-0.295826 -1.59109,-0.5934137 L 116.33632,9.309601 c -0.52794,-0.246522 -1.01946,-0.5634788 -1.45637,-0.9403056 -0.44603,-0.3944353 -0.801,-0.8733916 -1.05224,-1.4086964 -0.27854,-0.639196 -0.41143,-1.3294572 -0.39139,-2.0250011 V 4.6010323 a 4.6786108,4.5254375 0 0 1 0.37501,-1.8031318 4.787839,4.6310897 0 0 1 2.55413,-2.46345792 4.7514297,4.5958724 0 0 1 1.86779,-0.36273955 h 1.17967 a 4.7150202,4.5606549 0 0 1 1.86598,0.36273955 c 1.1469,0.46663068 2.06441,1.34706612 2.55413,2.45641482 a 4.6786108,4.5254375 0 0 1 0.3659,1.8101749 V 5.7350328 H 122.0162 V 4.6010323 c 0.002,-0.3433701 -0.0692,-0.6832183 -0.20755,-0.9984136 -0.27306,-0.6163045 -0.77915,-1.1058267 -1.4145,-1.3681969 -0.32769,-0.1355871 -0.67721,-0.2042605 -1.0322,-0.2007393 h -1.03222 c -0.35498,-0.00174 -0.70633,0.066915 -1.0322,0.2007393 a 2.7853209,2.6941321 0 0 0 -0.85926,0.5529137 2.6578879,2.5708712 0 0 0 -0.57526,0.8152832 2.6032738,2.5180451 0 0 0 -0.20756,0.9984136 v 0.3345656 c -0.0182,0.4543043 0.0983,0.9033261 0.33134,1.2995219 0.23667,0.3645002 0.54615,0.6779358 0.91024,0.9191745 a 6.7357432,6.5152213 0 0 0 1.33622,0.6920227 q 0.77553,0.3046304 1.59474,0.6198265 l 1.62022,0.7043485 a 6.3170349,6.1102211 0 0 1 1.45455,0.972 4.5511779,4.4021766 0 0 1 1.04677,1.424545 z M 107.3978,1.3205298 a 4.8242485,4.6663072 0 0 1 1.03221,1.4720882 4.6786108,4.5254375 0 0 1 0.36956,1.8172187 v 9.5492013 a 4.6786108,4.5254375 0 0 1 -0.37502,1.803132 c -0.49152,1.104065 -1.40175,1.980979 -2.54865,2.44761 a 4.6786108,4.5254375 0 0 1 -1.86416,0.36274 H 102.701 c -0.64263,0.0036 -1.27798,-0.11974 -1.86962,-0.36274 -1.150551,-0.468393 -2.066245,-1.352348 -2.552314,-2.465219 A 4.6786108,4.5254375 0 0 1 97.904055,14.14143 V 4.6063148 a 4.6786108,4.5254375 0 0 1 0.375011,-1.8031319 c 0.487892,-1.1093485 1.401763,-1.99506575 2.552314,-2.46521838 0.59164,-0.24123951 1.2288,-0.36450009 1.86962,-0.36273953 h 1.31074 c 0.6408,-0.0035418 1.27433,0.11973948 1.86416,0.36273953 0.56798,0.23243506 1.08317,0.56347882 1.5219,0.98608718 z m -0.801,12.8244212 V 4.6098367 A 2.6032738,2.5180451 0 0 0 106.38926,3.6114232 C 106.25272,3.306792 106.0616,3.0303355 105.81764,2.7943785 a 2.7125021,2.6236973 0 0 0 -0.84651,-0.5529129 c -0.32769,-0.1355869 -0.67724,-0.2042612 -1.03222,-0.2007393 h -1.15416 c -0.35501,-0.00174 -0.70636,0.066915 -1.03222,0.2007393 a 2.7671161,2.6765233 0 0 0 -0.85927,0.5529129 c -0.24576,0.232435 -0.44055,0.5106529 -0.57527,0.8152832 a 2.6032738,2.5180451 0 0 0 -0.20753,0.9984137 v 9.5492026 a 2.6032738,2.5180451 0 0 0 0.20753,0.998413 c 0.27672,0.619827 0.78827,1.114632 1.42907,1.382283 a 2.6032738,2.5180451 0 0 0 1.03222,0.200739 h 1.15416 a 2.6032738,2.5180451 0 0 0 1.03222,-0.200739 c 0.31494,-0.132065 0.60076,-0.320477 0.8447,-0.556435 0.24393,-0.235956 0.43691,-0.522978 0.57163,-0.83113 a 2.6032738,2.5180451 0 0 0 0.21481,-1.000176 z M 93.132592,11.567037 c 0.280354,0.64624 0.415069,1.343544 0.396859,2.04261 v 0.533544 c 0.0036,0.625108 -0.134716,1.241413 -0.404147,1.808414 a 5.0791145,4.9128291 0 0 1 -1.070431,1.468565 c -0.451478,0.422609 -0.979416,0.757176 -1.558323,0.98961 -0.595294,0.24124 -1.234278,0.3645 -1.880551,0.36274 h -1.319838 c -0.646273,0.0036 -1.285257,-0.11974 -1.880544,-0.36274 A 4.9880909,4.8247855 0 0 1 82.785031,15.951605 C 82.515602,15.384604 82.377247,14.76654 82.380888,14.143191 v -1.382284 h 2.184562 v 1.382284 a 2.3848172,2.3067405 0 0 0 0.223919,0.998413 c 0.149281,0.311675 0.356819,0.593413 0.613504,0.831131 a 2.894549,2.7997842 0 0 0 0.897492,0.561718 2.7853209,2.6941321 0 0 0 1.066797,0.202501 h 1.154178 c 0.36409,0.0017 0.724543,-0.06691 1.061331,-0.202501 a 2.9127539,2.8173931 0 0 0 0.892035,-0.561718 c 0.254863,-0.237718 0.464214,-0.519456 0.613495,-0.831131 a 2.3848172,2.3067405 0 0 0 0.225741,-0.998413 v -0.533544 c 0.01822,-0.48424 -0.101948,-0.964956 -0.345889,-1.391089 a 3.2404387,3.1343498 0 0 0 -0.910236,-0.956152 c -0.413246,-0.281739 -0.86108,-0.515934 -1.332583,-0.693783 q -0.7737,-0.295826 -1.589276,-0.5934137 L 85.497532,9.309601 C 84.969596,9.063079 84.47807,8.7461222 84.041158,8.3692954 83.596966,7.9730995 83.240151,7.4959038 82.990745,6.960599 A 5.0062956,4.8423942 0 0 1 82.602987,4.9391189 V 4.6045542 c -0.0037,-0.6198265 0.12379,-1.23261 0.373195,-1.8031318 a 4.787839,4.6310897 0 0 1 2.554119,-2.46345788 c 0.59165,-0.24123951 1.228823,-0.36450009 1.869628,-0.36273953 h 1.179659 c 0.637171,-0.0052696 1.270691,0.11445698 1.860529,0.35217453 1.146898,0.47191319 2.060769,1.35586988 2.548661,2.46521848 A 4.6786108,4.5254375 0 0 1 93.36379,4.6027928 V 5.7367934 H 91.161026 V 4.6027928 A 2.6032738,2.5180451 0 0 0 90.953486,3.6043793 C 90.81695,3.2997489 90.6258,3.0232924 90.381859,2.7873355 90.137918,2.5513785 89.853923,2.3647262 89.535336,2.2344218 89.207658,2.0988347 88.858127,2.0301613 88.50313,2.0336825 h -1.032208 c -0.354989,-0.00174 -0.706342,0.066915 -1.032206,0.2007393 a 2.7489114,2.6589146 0 0 0 -0.85926,0.5529137 c -0.245763,0.232435 -0.440556,0.5106521 -0.57527,0.8152832 -0.140172,0.3169568 -0.211174,0.6550435 -0.20753,0.9984136 v 0.3345656 c -0.01822,0.4543043 0.09649,0.9033261 0.327678,1.2995219 0.236662,0.3645002 0.546147,0.6779358 0.910236,0.9191745 a 6.753948,6.5328301 0 0 0 1.33805,0.6920227 q 0.773699,0.3046304 1.592911,0.6198265 l 1.620224,0.7043485 a 6.3352397,6.1278299 0 0 1 1.454551,0.972 4.5511779,4.4021766 0 0 1 1.054053,1.424545 z M 67.658738,0.21998558 H 78.550616 V 2.2802044 h -8.68911 v 6.078526 h 7.032482 v 2.0549356 h -7.032482 v 6.067961 h 8.68911 v 2.054935 H 67.658738 Z m -6.22237,0 h 1.301637 V 18.53304 h -2.20277 V 5.7315109 L 56.588452,12.047755 H 55.410609 L 51.423776,5.7508804 V 18.534802 h -2.20277 V 0.22174699 h 1.287073 l 5.472337,8.85717941 z"
       fill="#251c4b"
       id="path9"
       style="fill:#323a43;fill-opacity:1;stroke-width:1.79042" />
    <path
       d="M 5.9278452,2.2972732 20.241931,9.9279417 32.306912,2.2972732 Z m 16.7193768,8.9131738 3.904693,2.082296 5.476983,-8.0168399 z M 5.0448639,4.4959886 12.219087,15.004012 17.951177,11.378923 Z M 28.736461,14.459775 35.06727,17.838774 V 5.1821998 Z M 2.5333651,5.1821998 V 21.128801 l 7.6053019,-4.81105 z M 13.557095,16.95853 l 5.245826,7.673261 6.41411,-9.389262 -4.859522,-2.58394 z m 5.244785,10.155926 c -0.819465,0 -1.57229,-0.416459 -2.072091,-1.135798 L 11.474592,18.286467 3.5402553,23.30764 C 2.7343266,23.816856 1.8575928,23.906774 1.1349642,23.56982 0.41233562,23.232867 0,22.528672 0,21.62666 V 2.8623327 A 3.1549923,2.8678896 0 0 1 1.7274364,0.31246649 C 2.0398118,0.13263183 2.4937975,0.00201508 3.1518685,0.00201508 H 34.451891 A 2.665604,2.4230354 0 0 1 35.814889,0.28501804 3.1549923,2.8678896 0 0 1 37.6048,2.8689581 V 18.129349 c 0,0.873617 -0.4165,1.586331 -1.116221,1.956411 -0.699721,0.370081 -1.593115,0.326542 -2.419869,-0.120205 l -6.669216,-3.551261 -6.525524,9.564364 c -0.497718,0.726911 -1.251584,1.14337 -2.082503,1.14337 z"
       fill="url(#A)"
       id="path11"
       style="fill:url(#A);stroke-width:0.992745" />
  </g>
</svg>
