<?xml version="1.0" encoding="UTF-8" standalone="no"?>
<!-- Created with Inkscape (http://www.inkscape.org/) -->

<svg
   version="1.1"
   id="svg2"
   xml:space="preserve"
   width="500"
   height="83.242874"
   viewBox="0 0 500 83.242873"
   sodipodi:docname="Apcera-primary_PMS-sRGB.svg"
   inkscape:version="1.1.1 (3bf5ae0d25, 2021-09-20)"
   xmlns:inkscape="http://www.inkscape.org/namespaces/inkscape"
   xmlns:sodipodi="http://sodipodi.sourceforge.net/DTD/sodipodi-0.dtd"
   xmlns="http://www.w3.org/2000/svg"
   xmlns:svg="http://www.w3.org/2000/svg"><defs
     id="defs6"><clipPath
       clipPathUnits="userSpaceOnUse"
       id="clipPath16"><path
         d="M 0,628 H 2506.037 V 0 H 0 Z"
         id="path14" /></clipPath><clipPath
       clipPathUnits="userSpaceOnUse"
       id="clipPath26"><path
         d="M -289.829,186.962 H 289.829 V -186.962 H -289.829 Z"
         id="path24" /></clipPath><clipPath
       clipPathUnits="userSpaceOnUse"
       id="clipPath34"><path
         d="M -174.047,53.0972 H 58.9598 V -181.822 H -174.047 Z"
         id="path32" /></clipPath><clipPath
       clipPathUnits="userSpaceOnUse"
       id="clipPath50"><path
         d="M -289.829,96.9127 H -24.1336 V -36.0401 H -289.829 Z"
         id="path48" /></clipPath><clipPath
       clipPathUnits="userSpaceOnUse"
       id="clipPath66"><path
         d="M 72.2791,186.96 H 289.829 V -16.5155 H 72.2791 Z"
         id="path64" /></clipPath><clipPath
       clipPathUnits="userSpaceOnUse"
       id="clipPath114"><path
         d="M 0,628 H 2506.037 V 0 H 0 Z"
         id="path112" /></clipPath></defs><sodipodi:namedview
     id="namedview4"
     pagecolor="#ffffff"
     bordercolor="#666666"
     borderopacity="1.0"
     inkscape:pageshadow="2"
     inkscape:pageopacity="0.0"
     inkscape:pagecheckerboard="0"
     showgrid="false"
     fit-margin-top="0"
     fit-margin-left="0"
     fit-margin-right="0"
     fit-margin-bottom="0"
     inkscape:zoom="2.266"
     inkscape:cx="250"
     inkscape:cy="41.482788"
     inkscape:window-width="1920"
     inkscape:window-height="1010"
     inkscape:window-x="-6"
     inkscape:window-y="-6"
     inkscape:window-maximized="1"
     inkscape:current-layer="g8" /><g
     id="g8"
     inkscape:groupmode="layer"
     inkscape:label="Apcera-primary_PMS-sRGB"
     transform="matrix(1.3333333,0,0,-1.3333333,-110.39574,662.69506)"><g
       id="g1002"
       transform="matrix(0.16696489,0,0,0.16696489,68.972646,414.0362)"><g
         id="g10"><g
           id="g12"
           clip-path="url(#clipPath16)"><g
             id="g18"
             transform="matrix(1,0,0,-1,372.62512,310.05945)"><g
               id="g20"><g
                 id="g22"
                 clip-path="url(#clipPath26)"><g
                   id="g28"><g
                     id="g30" /><g
                     id="g42"><g
                       clip-path="url(#clipPath34)"
                       opacity="0.300003"
                       id="g40"><g
                         transform="translate(-68.547,-164.1111)"
                         id="g38"><path
                           d="m 0,0 c -24.504,-23.98 -63.808,-23.556 -87.789,0.948 -23.98,24.504 -23.556,63.808 0.948,87.789 L 42.284,217.208 87.58,169.097 C 101.935,153.91 115.547,139.51 127.507,126.857 64.522,64.212 0,0 0,0"
                           style="fill:#00e2af;fill-opacity:1;fill-rule:nonzero;stroke:none"
                           id="path36" /></g></g></g></g><g
                   id="g44"><g
                     id="g46" /><g
                     id="g58"><g
                       clip-path="url(#clipPath50)"
                       opacity="0.300003"
                       id="g56"><g
                         transform="translate(-232.5118,-27.0587)"
                         id="g54"><path
                           d="m 0,0 c -33.481,2.576 -59.765,32.474 -57.135,66.658 2.629,34.185 33.293,59.702 66.658,57.136 33.365,-2.567 107.786,-6.205 141.537,-8.801 33.751,-2.597 59.765,-32.474 57.135,-66.658 C 205.565,14.15 175.187,-11.389 141.537,-8.801 107.887,-6.212 33.481,-2.576 0,0"
                           style="fill:#00e2af;fill-opacity:1;fill-rule:nonzero;stroke:none"
                           id="path52" /></g></g></g></g><g
                   id="g60"><g
                     id="g62" /><g
                     id="g74"><g
                       clip-path="url(#clipPath66)"
                       opacity="0.300003"
                       id="g72"><g
                         transform="translate(94.0391,77.7435)"
                         id="g70"><path
                           d="m 0,0 c -25.614,21.714 -29.381,61.345 -7.21,87.497 22.171,26.153 61.972,28.849 87.497,7.21 25.526,-21.639 67.854,-57.784 93.675,-79.674 25.821,-21.889 29.38,-61.344 7.21,-87.497 -22.171,-26.153 -61.754,-29.034 -87.498,-7.21 C 67.931,-57.85 25.614,-21.714 0,0"
                           style="fill:#00e2af;fill-opacity:1;fill-rule:nonzero;stroke:none"
                           id="path68" /></g></g></g></g><g
                   id="g76"
                   transform="translate(-126.3043,-60.2437)"><path
                     d="m 0,0 c -30.669,-13.677 -68.017,0.1 -81.982,31.413 -13.964,31.313 0.852,68.352 31.413,81.982 30.562,13.629 255.333,114.684 286.249,128.471 30.916,13.787 68.018,-0.1 81.982,-31.413 13.964,-31.313 -0.59,-68.236 -31.413,-81.982 C 255.426,114.726 30.669,13.677 0,0"
                     style="fill:#1e86e5;fill-opacity:1;fill-rule:nonzero;stroke:none"
                     id="path78" /></g><g
                   id="g80"
                   transform="translate(-224.2336,81.5966)"><path
                     d="m 0,0 c -23.067,24.403 -22.446,64.207 2.47,87.759 24.916,23.552 64.772,21.849 87.759,-2.47 22.987,-24.318 212.365,-224.663 235.618,-249.263 23.253,-24.6 22.446,-64.207 -2.47,-87.759 -24.916,-23.552 -64.575,-22.057 -87.759,2.469 C 212.435,-224.737 23.067,-24.403 0,0"
                     style="fill:#1e86e5;fill-opacity:1;fill-rule:nonzero;stroke:none"
                     id="path82" /></g><g
                   id="g84"
                   transform="translate(99.1438,-170.1366)"><path
                     d="m 0,0 c -24.916,-23.552 -64.576,-22.057 -87.759,2.47 -11.188,11.835 -61.073,64.609 -112.294,118.797 28.518,12.792 74.37,33.387 119.942,53.855 C -40.533,133.252 -6.546,97.297 2.469,87.759 25.723,63.159 24.916,23.552 0,0"
                     style="fill:#00e2af;fill-opacity:1;fill-rule:nonzero;stroke:none"
                     id="path86" /></g><g
                   id="g88"
                   transform="translate(-100.911,-48.8757)"><path
                     d="M 0,0 C 28.518,12.792 74.371,33.387 119.942,53.856 90.258,85.259 57.43,119.988 29.629,149.399 -20.129,127.052 -63.695,107.492 -75.964,102.021 c -4.728,-2.109 -9.077,-4.78 -13.003,-7.902 z"
                     style="fill:#184ec9;fill-opacity:1;fill-rule:nonzero;stroke:none"
                     id="path90" /></g><g
                   id="g92"
                   transform="translate(73.7533,138.9381)"><path
                     d="m 0,0 c 8.876,35.362 43.063,53.689 74.598,46.441 33.388,-7.674 54.838,-40.546 46.44,-74.747 -2.361,-9.617 -50.698,-224.281 -50.698,-224.281 -7.816,-33.383 -41.214,-54.108 -74.597,-46.292 -33.383,7.816 -54.109,41.215 -46.292,74.598 z"
                     style="fill:#1e86e5;fill-opacity:1;fill-rule:nonzero;stroke:none"
                     id="path94" /></g><g
                   id="g96"
                   transform="translate(110.6153,-155.4024)"><path
                     d="m 0,0 c -12.345,-5.964 -26.731,-7.908 -41.119,-4.539 -33.383,7.817 -54.109,41.215 -46.292,74.598 l 15.636,69.375 C -41.065,106.945 -16.468,80.923 -9.002,73.025 9.892,53.037 12.901,23.141 0,0"
                     style="fill:#184ec9;fill-opacity:1;fill-rule:nonzero;stroke:none"
                     id="path98" /></g><g
                   id="g100"
                   transform="translate(196.6595,124.7094)"><path
                     d="m 0,0 c 0.36,34.692 -27.125,62.253 -62.401,62.253 -30.469,0 -54.598,-20.721 -61.391,-51.034 -0.808,-3.61 -26.544,-118.684 -26.544,-118.684 0,0 104.152,46.989 111.388,49.942 C -16.275,-48.269 -0.27,-25.999 0,0"
                     style="fill:#00e2af;fill-opacity:1;fill-rule:nonzero;stroke:none"
                     id="path102" /></g></g></g></g></g></g><g
         id="g104"
         transform="translate(850.3959,372.0744)"><path
           d="M 0,0 -32.261,-78.745 H 32.261 Z M 73.541,-180.383 51.34,-125.921 H -51.34 l -22.201,-54.462 h -54.462 L -23.935,64.173 h 49.258 l 104.066,-244.556 z"
           style="fill:#2c414b;fill-opacity:1;fill-rule:nonzero;stroke:none"
           id="path106" /></g><g
         id="g108"><g
           id="g110"
           clip-path="url(#clipPath114)"><g
             id="g116"
             transform="translate(1176.1115,349.5259)"><path
               d="m 0,0 c 0,23.935 -16.651,36.77 -43.361,36.77 h -41.28 v -74.234 h 42.32 C -15.61,-37.464 0,-21.507 0,-0.694 Z m -44.055,-84.988 h -40.586 v -72.847 h -53.421 V 84.988 h 99.21 c 57.931,0 92.967,-34.342 92.967,-83.948 V 0.348 c 0,-56.197 -43.708,-85.336 -98.17,-85.336"
               style="fill:#2c414b;fill-opacity:1;fill-rule:nonzero;stroke:none"
               id="path118" /></g><g
             id="g120"
             transform="translate(1404.3549,187.5277)"><path
               d="m 0,0 c -71.459,0 -124.532,55.156 -124.532,124.881 v 0.694 c 0,69.031 52.032,125.574 126.615,125.574 45.787,0 73.193,-15.264 95.741,-37.465 L 63.827,174.486 C 45.094,191.483 26.016,201.89 1.734,201.89 c -40.931,0 -70.417,-33.995 -70.417,-75.621 v -0.694 c 0,-41.626 28.791,-76.316 70.417,-76.316 27.75,0 44.751,11.101 63.83,28.445 L 99.558,43.362 C 74.581,16.652 46.831,0 0,0"
               style="fill:#2c414b;fill-opacity:1;fill-rule:nonzero;stroke:none"
               id="path122" /></g><g
             id="g124"
             transform="translate(1567.3809,191.6913)"><path
               d="M 0,0 V 242.822 H 183.156 V 195.298 H 53.073 V 146.04 H 167.546 V 98.516 H 53.073 V 47.524 H 184.891 V 0 Z"
               style="fill:#2c414b;fill-opacity:1;fill-rule:nonzero;stroke:none"
               id="path126" /></g><g
             id="g128"
             transform="translate(1969.0656,351.6077)"><path
               d="m 0,0 c 0,22.895 -15.957,34.688 -41.973,34.688 h -53.075 v -69.724 h 54.115 C -14.915,-35.036 0,-21.161 0,-0.694 Z m -1.039,-159.916 -52.034,77.703 h -41.975 v -77.703 h -53.419 V 82.906 h 111.004 c 57.237,0 91.577,-30.179 91.577,-80.131 V 2.081 c 0,-39.198 -21.157,-63.827 -52.031,-75.275 L 61.4,-159.916 Z"
               style="fill:#2c414b;fill-opacity:1;fill-rule:nonzero;stroke:none"
               id="path130" /></g><g
             id="g132"
             transform="translate(2199.387,372.0744)"><path
               d="m 0,0 -32.26,-78.745 h 64.522 z m 73.542,-180.383 -22.201,54.462 H -51.339 L -73.54,-180.383 H -128 L -23.933,64.173 h 49.256 l 104.068,-244.556 z"
               style="fill:#2c414b;fill-opacity:1;fill-rule:nonzero;stroke:none"
               id="path134" /></g></g></g></g></g></svg>
