<?xml version="1.0" encoding="utf-8"?>
<!-- Generator: Adobe Illustrator 15.0.0, SVG Export Plug-In . SVG Version: 6.00 Build 0)  -->
<!DOCTYPE svg PUBLIC "-//W3C//DTD SVG 1.1//EN" "http://www.w3.org/Graphics/SVG/1.1/DTD/svg11.dtd">
<svg version="1.1" id="CMYK_-_logo" xmlns="http://www.w3.org/2000/svg" xmlns:xlink="http://www.w3.org/1999/xlink" x="0px"
	 y="0px" width="707.937px" height="132.018px" viewBox="27.5 545.5 707.937 132.018"
	 enable-background="new 27.5 545.5 707.937 132.018" xml:space="preserve">
<title>NewRelic-logo-bug</title>
<g>
	<path d="M265.466,649.478l-20.19-42.32c-4.82-10-9.77-21.359-11.46-26.7l-0.39,0.391c0.65,7.55,0.78,17.06,0.91,25l0.52,43.63
		h-14.71v-90.12h16.93l21.88,44c3.667,7.48,6.76,15.229,9.25,23.18l0.39-0.39c-0.39-4.56-1.3-17.45-1.3-25.66l-0.26-41.149h14.2
		v90.119L265.466,649.478z"/>
	<path d="M320.676,592.827c-8.07,0-12.5,6.38-12.5,17.061h24.35C332.526,599.228,327.846,592.827,320.676,592.827z M308.046,620.438
		v1c0,9.12,3.39,18.75,16.28,18.75c6.12,0,11.46-2.21,16.41-6.51l5.6,8.729c-6.568,5.709-14.999,8.814-23.7,8.73
		c-18.62,0-30.34-13.41-30.34-34.51c0-11.591,2.47-19.28,8.21-25.79c5.34-6.12,11.85-8.86,20.19-8.86
		c6.689-0.211,13.191,2.222,18.1,6.77c5.73,5.21,8.6,13.28,8.6,28.65v3L308.046,620.438z"/>
	<path d="M423.606,649.737h-13.46l-8.07-30.34c-2.08-7.81-4.3-18-4.3-18h-0.261c0,0-1,6.51-4.299,18.62l-7.94,29.689h-13.42
		l-18-65.25l14.2-2l7.16,31.91c1.82,8.2,3.39,17.32,3.39,17.32h0.39c0.961-5.964,2.223-11.874,3.78-17.71l8.47-30.47h14.07
		l7.43,29.72c2.74,10.68,4.17,18.75,4.17,18.75h0.391c0,0,1.56-10,3.26-17.71l6.77-30.74h14.851L423.606,649.737z"/>
	<path d="M494.816,571.478h-8.21v28.52h7.68c7.811,0,12-1,14.72-3.779c2.471-2.471,4-6.25,4-10.94
		c0.051-9.12-4.899-13.81-18.189-13.81V571.478z M515.656,649.478l-7.81-13.94c-6.24-11.06-10.42-17.31-15.37-22.31
		c-1.463-1.72-3.612-2.705-5.87-2.69v38.94h-14.71v-90.12h27.479c20.19,0,29.3,11.72,29.3,25.79c0,12.89-8.329,24.75-22.399,24.75
		c3.26,1.69,9.25,10.42,13.93,18l13.28,21.62L515.656,649.478z"/>
	<path d="M565.796,592.827c-8.069,0-12.5,6.38-12.5,17.061h24.311C577.606,599.228,572.956,592.827,565.796,592.827z
		 M553.156,620.438v1c0,9.12,3.39,18.75,16.28,18.75c6.12,0,11.46-2.21,16.41-6.51l5.6,8.729c-6.567,5.709-14.998,8.814-23.7,8.73
		c-18.62,0-30.34-13.41-30.34-34.51c0-11.591,2.47-19.28,8.21-25.79c5.34-6.12,11.851-8.86,20.19-8.86
		c6.688-0.211,13.191,2.222,18.1,6.77c5.73,5.21,8.6,13.28,8.6,28.65v3L553.156,620.438z"/>
	<path d="M619.316,650.917c-14.46,0-14.46-13-14.46-18.619v-56.141c0.166-6.447-0.252-12.897-1.25-19.27l14.72-3.26
		c1,4,1.17,9.51,1.17,18.1v55.87c0,8.859,0.391,10.29,1.43,11.85c1.169,1.338,3.078,1.745,4.69,1l2.34,8.86
		C625.211,650.408,622.274,650.955,619.316,650.917z"/>
	<path d="M637.026,649.487v-64.859l14.46-2.61v67.46L637.026,649.487z M644.187,573.817c-2.491-0.023-4.87-1.041-6.607-2.827
		c-1.736-1.786-2.688-4.191-2.643-6.683c0.029-3.829,2.368-7.261,5.921-8.688c3.553-1.428,7.616-0.567,10.285,2.178
		c2.67,2.744,3.417,6.83,1.893,10.342C651.51,571.651,648.015,573.895,644.187,573.817z"/>
	<path d="M692.506,651.178c-18,0-28-12.63-28-33.86c0-24,14.33-35.42,29-35.42c7.16,0,12.37,1.69,18.23,7.16l-7.13,9.5
		c-3.91-3.521-7.29-5.08-11.07-5.08c-4.49-0.076-8.592,2.538-10.42,6.64c-2,4-2.729,10.16-2.729,18.36c0,9,1.43,14.72,4.43,18
		c2.234,2.452,5.413,3.828,8.729,3.78c4.561,0,9-2.21,13.28-6.511l6.771,8.73C707.606,648.438,701.356,651.178,692.506,651.178z"/>
	<path d="M726.606,637.667c-0.397-0.11-0.808-0.164-1.22-0.159h-0.78v2.939h0.729c0.94,0,1.351-0.109,1.641-0.37
		c0.278-0.293,0.43-0.686,0.42-1.09C727.456,638.421,727.134,637.883,726.606,637.667z M727.717,646.617c-0.421-0.729-0.601-1-1-1.8
		c-1.07-1.95-1.4-2.5-1.791-2.65c-0.104-0.053-0.222-0.08-0.34-0.079v4.529h-2.13v-10.85h4c0.86-0.06,1.704,0.255,2.316,0.861
		c0.613,0.607,0.935,1.448,0.884,2.309c0.13,1.487-0.938,2.812-2.42,3c0.166,0.137,0.314,0.295,0.439,0.47
		c0.62,0.78,2.601,4.21,2.601,4.21H727.717z M725.816,633.508c-3.177-0.14-6.118,1.669-7.429,4.566
		c-1.311,2.896-0.726,6.3,1.477,8.594s5.578,3.017,8.526,1.825c2.948-1.19,4.875-4.056,4.865-7.235
		c0.057-2.02-0.698-3.978-2.097-5.437c-1.398-1.458-3.322-2.295-5.343-2.324V633.508z M725.816,650.928
		c-3.916,0.02-7.457-2.323-8.97-5.935c-1.513-3.612-0.697-7.779,2.064-10.556c2.762-2.775,6.925-3.612,10.544-2.118
		c3.62,1.493,5.981,5.022,5.981,8.938c0.011,2.559-0.998,5.017-2.803,6.831C730.828,649.903,728.376,650.925,725.816,650.928z"/>
	<path fill="#008C99" d="M109.016,643.907c-17.894,0-32.4-14.506-32.4-32.399c0-17.895,14.506-32.4,32.4-32.4s32.4,14.506,32.4,32.4
		c0,8.593-3.414,16.834-9.49,22.91S117.609,643.907,109.016,643.907z M189.326,594.048c-7.65-35.15-49.8-55.82-94.16-46.181
		c-44.36,9.641-74.11,45.96-66.47,81.101c7.64,35.14,49.8,55.83,94.15,46.18S196.966,629.228,189.326,594.048z"/>
	<path fill="#70CCD3" d="M109.006,639.808c-15.63,0-28.3-12.671-28.3-28.3c0-15.63,12.67-28.301,28.3-28.301
		c15.629,0,28.3,12.671,28.3,28.301c0,15.625-12.664,28.294-28.29,28.3H109.006z M116.176,566.147
		c-25.691,0.006-46.514,20.836-46.51,46.526c0.003,25.691,20.832,46.516,46.523,46.514s46.517-20.829,46.517-46.521
		c0-12.339-4.902-24.173-13.628-32.897C140.351,571.045,128.516,566.145,116.176,566.147z"/>
</g>
</svg>
