<?xml version="1.0" encoding="UTF-8" standalone="no"?>
<!-- Created with Inkscape (http://www.inkscape.org/) -->

<svg
   version="1.1"
   id="svg69734"
   xml:space="preserve"
   width="4000"
   height="836.67334"
   viewBox="0 0 4000 836.67334"
   sodipodi:docname="CircleCI-logo-horizontal.svg"
   inkscape:version="1.1.1 (3bf5ae0d25, 2021-09-20)"
   xmlns:inkscape="http://www.inkscape.org/namespaces/inkscape"
   xmlns:sodipodi="http://sodipodi.sourceforge.net/DTD/sodipodi-0.dtd"
   xmlns="http://www.w3.org/2000/svg"
   xmlns:svg="http://www.w3.org/2000/svg"><defs
     id="defs69738"><clipPath
       clipPathUnits="userSpaceOnUse"
       id="clipPath69748"><path
         d="M 0,4000 H 4000 V 0 H 0 Z"
         id="path69746" /></clipPath></defs><sodipodi:namedview
     id="namedview69736"
     pagecolor="#ffffff"
     bordercolor="#666666"
     borderopacity="1.0"
     inkscape:pageshadow="2"
     inkscape:pageopacity="0.0"
     inkscape:pagecheckerboard="0"
     showgrid="false"
     fit-margin-top="0"
     fit-margin-left="0"
     fit-margin-right="0"
     fit-margin-bottom="0"
     inkscape:zoom="0.150375"
     inkscape:cx="1998.3376"
     inkscape:cy="418.95263"
     inkscape:window-width="1920"
     inkscape:window-height="1010"
     inkscape:window-x="-6"
     inkscape:window-y="-6"
     inkscape:window-maximized="1"
     inkscape:current-layer="g69740" /><g
     id="g69740"
     inkscape:groupmode="layer"
     inkscape:label="circle-logo-horizontal"
     transform="matrix(1.3333333,0,0,-1.3333333,-666.66705,3085.0031)"><g
       id="g69742"><g
         id="g69744"
         clip-path="url(#clipPath69748)"><g
           id="g69750"
           transform="translate(3159.0413,1806.9064)"><path
             d="m 0,0 c 90.125,0 165.743,61.758 187.047,145.246 0.128,0.605 0.234,1.232 0.234,1.869 0,5.077 -4.12,9.187 -9.177,9.187 h -77.847 c -3.696,0 -6.882,-2.188 -8.327,-5.364 l -0.02,0.011 C 75.915,116.146 40.803,91.952 0,91.952 c -55.843,0 -101.15,45.275 -101.15,101.139 0,55.852 45.307,101.139 101.15,101.139 40.803,0 75.915,-24.194 91.91,-59.002 l 0.02,0.016 c 1.445,-3.155 4.631,-5.375 8.327,-5.375 h 77.847 c 5.057,0 9.177,4.116 9.177,9.198 0,0.637 -0.106,1.226 -0.234,1.837 C 165.764,324.391 90.125,386.171 0,386.171 c -106.609,0 -193.102,-86.472 -193.102,-193.08 C -193.102,86.45 -106.609,0 0,0 M 331.761,376.979 V 18.395 c 0,-5.066 -4.12,-9.187 -9.175,-9.187 h -73.558 c -5.076,0 -9.197,4.121 -9.197,9.187 v 358.584 z m -45.964,128.72 c -30.46,0 -55.163,-24.708 -55.163,-55.168 0,-30.47 24.703,-55.168 55.163,-55.168 30.48,0 55.162,24.698 55.162,55.168 0,30.46 -24.682,55.168 -55.162,55.168 M -574.27,229.869 c 16.122,58.296 69.522,101.135 132.947,101.135 63.425,0 116.783,-42.839 132.904,-101.135 z m 132.947,156.302 c -106.65,0 -193.102,-86.44 -193.102,-193.08 C -634.425,86.461 -547.973,0 -441.323,0 c 75.384,0 140.615,43.225 172.413,106.215 0.637,1.254 0.998,2.634 0.998,4.132 0,5.087 -4.121,9.186 -9.198,9.186 h -42.672 c -3.038,0 -5.736,-1.486 -7.392,-3.78 -24.831,-36.546 -66.676,-60.579 -114.149,-60.579 -69.946,0 -127.679,52.061 -136.675,119.533 h 320.303 c 4.928,0 8.921,3.876 9.176,8.73 0.169,3.196 0.255,6.42 0.255,9.654 0,106.64 -86.43,193.08 -193.059,193.08 m -257.461,110.336 h -36.769 c -5.097,0 -9.197,-4.121 -9.197,-9.192 V 18.395 c 0,-5.066 4.1,-9.187 9.197,-9.187 h 36.769 c 5.076,0 9.208,4.121 9.208,9.187 v 468.92 c 0,5.071 -4.132,9.192 -9.208,9.192 M -809.12,119.533 h -42.684 c -2.974,0 -5.608,-1.422 -7.264,-3.61 -24.789,-36.641 -66.719,-60.749 -114.266,-60.749 -76.197,0 -137.929,61.747 -137.929,137.917 0,76.17 61.732,137.913 137.929,137.913 47.547,0 89.477,-24.114 114.266,-60.745 1.678,-2.198 4.312,-3.616 7.264,-3.616 h 42.684 c 5.086,0 9.207,4.126 9.207,9.192 0,1.497 -0.382,2.889 -1.019,4.131 -31.777,62.985 -97.049,106.205 -172.402,106.205 -106.645,0 -193.085,-86.44 -193.085,-193.08 0,-106.63 86.44,-193.091 193.085,-193.091 75.353,0 140.625,43.225 172.402,106.215 0.637,1.254 1.019,2.634 1.019,4.132 0,5.087 -4.121,9.186 -9.207,9.186 m -366.369,266.415 c -55.641,-2.623 -100.077,-29.206 -128.859,-69.808 v 51.662 c 0,5.051 -4.121,9.177 -9.197,9.177 h -36.773 c -5.082,0 -9.192,-4.126 -9.192,-9.177 V 18.395 c 0,-5.066 4.11,-9.187 9.192,-9.187 h 36.773 c 5.076,0 9.197,4.121 9.197,9.187 v 174.696 c 0,73.074 56.847,132.862 128.71,137.594 5.082,0 9.219,4.125 9.219,9.212 v 36.859 c 0,5.04 -4.058,9.096 -9.07,9.192 M -1414.684,18.395 v 358.584 h -55.173 V 18.395 c 0,-5.066 4.132,-9.187 9.203,-9.187 h 36.773 c 5.076,0 9.197,4.121 9.197,9.187 m 9.188,432.136 c 0,-20.312 -16.452,-36.779 -36.769,-36.779 -20.306,0 -36.773,16.467 -36.773,36.779 0,20.312 16.467,36.784 36.773,36.784 20.317,0 36.769,-16.472 36.769,-36.784 m -128.721,-330.998 h -42.673 c -2.99,0 -5.597,-1.422 -7.291,-3.61 -24.772,-36.641 -66.691,-60.749 -114.261,-60.749 -76.179,0 -137.922,61.747 -137.922,137.917 0,76.17 61.743,137.913 137.922,137.913 47.57,0 89.489,-24.114 114.278,-60.745 1.677,-2.198 4.311,-3.616 7.274,-3.616 h 42.673 c 5.087,0 9.219,4.126 9.219,9.192 0,1.497 -0.398,2.889 -1.009,4.131 -31.798,62.985 -97.072,106.205 -172.435,106.205 -106.639,0 -193.1,-86.44 -193.1,-193.08 0,-106.63 86.461,-193.091 193.1,-193.091 75.363,0 140.637,43.225 172.435,106.215 0.611,1.254 1.009,2.634 1.009,4.132 0,5.087 -4.132,9.186 -9.219,9.186 m -820.473,387.313 c -146.462,0 -269.367,-100.348 -303.959,-236.014 -0.232,-0.987 -0.392,-1.991 -0.392,-3.042 0,-8.252 6.69,-14.938 14.942,-14.938 h 126.459 c 6.022,0 11.172,3.595 13.552,8.725 l 0.021,-0.005 c 25.983,56.559 83.051,95.876 149.377,95.876 90.741,0 164.341,-73.6 164.341,-164.357 0,-90.763 -73.6,-164.363 -164.341,-164.363 -66.326,0 -123.394,39.318 -149.377,95.893 l -0.021,-0.032 c -2.38,5.14 -7.53,8.73 -13.552,8.73 h -126.459 c -8.252,0 -14.942,-6.67 -14.942,-14.943 0,-1.02 0.16,-1.997 0.372,-2.974 34.58,-135.676 157.49,-236.061 303.979,-236.061 173.262,0 313.744,140.488 313.744,313.75 0,173.278 -140.482,313.755 -313.744,313.755 m -74.71,-313.755 c 0,41.245 33.454,74.699 74.71,74.699 41.249,0 74.693,-33.454 74.693,-74.699 0,-41.25 -33.444,-74.715 -74.693,-74.715 -41.256,0 -74.71,33.465 -74.71,74.715"
             style="fill:#333333;fill-opacity:1;fill-rule:nonzero;stroke:none"
             id="path69752" /></g></g></g></g></svg>
