<svg xmlns="http://www.w3.org/2000/svg" xmlns:xlink="http://www.w3.org/1999/xlink" viewBox="0 0 88 54" fill="#fff" fill-rule="evenodd" stroke="#000" stroke-linecap="round" stroke-linejoin="round"><use xlink:href="#A" x=".5" y=".5"/><symbol id="A" overflow="visible"><path d="M1.122 40.925v-2.78h2v2.78h1.612v1.612H3.122v4.734c0 .446.206.583.72.583.3 0 .617-.103.892-.172v1.647l-1.578.137c-1.475 0-2.024-.755-2.024-1.92v-4.974H0V40.96zm6.553 4.494c.034 1.715.8 2.4 1.715 2.4s1.338-.412 1.852-.995l1.44.892c-.755 1.2-1.887 1.715-3.465 1.715-2.16 0-3.5-1.68-3.5-4.322s1.338-4.322 3.602-4.322c2.16 0 3.396 1.818 3.396 3.842v.823H7.672zm3.2-1.338c-.034-1.166-.652-1.818-1.578-1.818-.96 0-1.544.686-1.578 1.818zm8.223-.445c-.3-.72-.652-1.27-1.647-1.27-1.098 0-1.612.858-1.612 2.744 0 1.852.515 2.7 1.68 2.7.858 0 1.338-.583 1.75-1.338l1.5.858c-.8 1.475-1.818 2.093-3.328 2.093-2.23 0-3.602-1.68-3.602-4.322s1.338-4.322 3.602-4.322c1.578 0 2.813.823 3.26 2.23zm3.157 5.626V37.667h2v4.15c.618-.515 1.407-1.063 2.367-1.063 1.647 0 2.47 1.098 2.47 2.78v5.73h-2v-5.42c0-1.132-.343-1.475-1.03-1.475-.858 0-1.5.515-1.852.892v6.038h-1.955zm8.84 0v-8.336h1.818v.892c.72-.515 1.578-1.063 2.54-1.063 1.647 0 2.436 1.098 2.436 2.78v5.73h-1.955v-5.42c0-1.132-.343-1.475-1.03-1.475-.858 0-1.5.515-1.852.892V49.3h-1.957zm11.8-8.508c2.264 0 3.602 1.68 3.602 4.322s-1.338 4.322-3.602 4.322-3.602-1.68-3.602-4.322c.034-2.642 1.372-4.322 3.602-4.322zm0 1.612c-1.098 0-1.612.858-1.612 2.744 0 1.852.515 2.7 1.612 2.7s1.612-.858 1.612-2.7c.034-1.887-.515-2.744-1.612-2.744zm5.226 6.896V37.667h1.955v11.595zm7.17-8.508c2.264 0 3.602 1.68 3.602 4.322s-1.338 4.322-3.602 4.322-3.602-1.68-3.602-4.322c.034-2.642 1.372-4.322 3.602-4.322zm0 1.612c-1.098 0-1.612.858-1.612 2.744 0 1.852.515 2.7 1.612 2.7s1.612-.858 1.612-2.7c.034-1.887-.48-2.744-1.612-2.744zm11.766-.24c-.446 0-.96 0-1.27.206.274.343.446.823.446 1.475 0 1.578-1.063 2.7-3.122 2.7-.858 0-1.544.034-1.544.515 0 1.338 5.455-.48 5.455 2.847 0 1.2-1.2 2.47-3.842 2.47-2.23 0-3.705-.686-3.705-2a1.48 1.48 0 0 1 1.475-1.544v-.07c-.377-.24-1.235-.446-1.235-1.338 0-.8.926-1.407 1.304-1.5-.686-.55-1.235-1.2-1.235-2.196 0-1.475 1.098-2.916 3.26-2.916.686 0 1.544.3 2.024.755.377-.515.995-.8 1.955-.755v1.338zm-5.763 7.96c0 .618.55.926 2.196.926 1.27 0 1.715-.652 1.715-.926 0-.377-.583-.96-2.504-.96-1.098 0-1.407.583-1.407.96zm1.75-7.856c-.858 0-1.44.617-1.44 1.372s.583 1.372 1.44 1.372c.755 0 1.338-.617 1.338-1.372.034-.755-.583-1.372-1.338-1.372zm5.42-2.848V37.53h1.955v1.852zm2 7.444v2.47h-1.955V40.96h1.955zm3.557-1.407c.034 1.715.8 2.4 1.715 2.4s1.338-.412 1.852-.995l1.44.892c-.755 1.2-1.887 1.715-3.465 1.715-2.16 0-3.5-1.68-3.5-4.322s1.338-4.322 3.602-4.322c2.16 0 3.396 1.818 3.396 3.842v.823h-5.043zm3.2-1.338c-.034-1.166-.652-1.818-1.612-1.818s-1.578.686-1.578 1.818zm7.47-.96c-.412-.446-.926-.892-1.544-.892-.755 0-1.098.3-1.098.823 0 1.44 4.15.823 4.15 3.877 0 1.715-1.304 2.504-3.053 2.504a3.6 3.6 0 0 1-3.122-1.681l1.338-.995c.446.652 1.063 1.2 1.92 1.2.686 0 1.166-.377 1.166-.96 0-1.407-4.15-.892-4.15-3.808 0-1.544 1.304-2.436 2.744-2.436 1.098 0 2.196.412 2.916 1.27zM57.078 24.783c-1.072 1.655-2.797 2.68-4.708 2.68-2.6 0-4.778-1.2-4.778-4.008 0-4.172 6.083-5.64 10.744-5.92v1.235c.023 2.703-.023 4.148-1.258 6.013zm-8.67-14.985c.7-1.888 2.587-2.703 5.15-2.703 3.66 0 4.708 2.564 4.754 4.684l.023 1.025c-10.114.5-19.623 2.377-19.436 11.63.14 6.48 6 9.136 10.02 9.112 4.684 0 7.294-1.258 9.88-4.45.047 1.352.2 2.773.443 3.822h9.066c-.513-1.585-.63-3.17-.63-4.824V11.279c0-4.078-.77-6.362-2.96-8.343C62.644 1.048 59.241 0 54.65 0c-4.195 0-7.807.956-10.464 2.773 2.2 1.725 3.636 4.125 4.218 7.015zm-10.02 14.286v.84c.14 3.3 1.748 5.36 3.24 6.595-2.517 1.445-5.5 2.05-8.18 2.05-9.788 0-15.568-6.922-15.568-16.453C17.88 7.188 23.846.01 34.03.01c7.388 0 13.447 3.915 14.1 11.583h-8.88c0-2.913-2.05-4.475-4.917-4.475-4.6 0-6.013 3.24-6.013 9.206 0 6.06 1.328 9.602 6.036 9.602 1.748.023 3.193-.583 4.032-1.84z" stroke="none" fill="#000" fill-rule="nonzero"/></symbol></svg>