<svg id="Layer_1" data-name="Layer 1" xmlns="http://www.w3.org/2000/svg" width="509.5" height="156" viewBox="0 0 509.5 156"><title>logo-black</title><g id="Joyent"><path d="M97.13,107.5c5.59,5.89,13.63,10.56,25.27,10.56,8.9,0,16.28-2.58,21.31-7.61s7.73-12.18,7.73-21.9V37.42a2.51,2.51,0,0,0-2.51-2.51H135.44a2.51,2.51,0,0,0-2.51,2.51V87.73c0,9.49-4.22,13.58-11,13.58-5,0-9.1-2.3-13.16-6.29a2.51,2.51,0,0,0-3.62.1l-8.06,9A2.52,2.52,0,0,0,97.13,107.5Zm64.4-21.64v-.23c0-18,14.52-32.67,34.08-32.67s33.84,14.4,33.84,32.44v.23c0,18-14.52,32.67-34.08,32.67S161.53,103.89,161.53,85.85Zm50.36,0v-.23c0-9.25-6.67-17.33-16.51-17.33-10.19,0-16.28,7.85-16.28,17.1v.23c0,9.25,6.68,17.33,16.51,17.33C205.8,102.95,211.89,95.1,211.89,85.85Zm84.33,0v-.23c0-17.92,12.76-32.67,31-32.67,21,0,30.57,16.28,30.57,34.08,0,.73,0,1.51-.08,2.33a2.5,2.5,0,0,1-2.5,2.35H313.9c1.76,8.08,7.38,12.3,15.34,12.3a19.77,19.77,0,0,0,13.63-5,2.5,2.5,0,0,1,3.24.06l6.67,5.9a2.51,2.51,0,0,1,.17,3.61c-5.75,6.1-13.64,9.76-23.95,9.76C310.15,118.29,296.21,105.06,296.21,85.85Zm44.27-5.27c-1.05-8-5.74-13.35-13.23-13.35s-12.18,5.27-13.58,13.35Zm26.63-24v57.76a2.51,2.51,0,0,0,2.51,2.51h12.79a2.51,2.51,0,0,0,2.51-2.51V81.87c0-8.43,5.31-14.81,12.1-14.81s9.79,3.42,9.79,11.85v35.47a2.51,2.51,0,0,0,2.51,2.51h12.79a2.51,2.51,0,0,0,2.51-2.51V76.25c0-14.4-7.85-23.3-21.31-23.3-9,0-14.29,4.8-18.39,10.07V56.62a2.51,2.51,0,0,0-2.51-2.51H369.62A2.51,2.51,0,0,0,367.11,56.62Zm94.43,61.32a26.6,26.6,0,0,0,12.67-2.86,2.54,2.54,0,0,0,1.39-2.25v-9a2.51,2.51,0,0,0-3.31-2.37,18.3,18.3,0,0,1-5.48.82c-4,0-5.74-2-5.74-6.09V69.34h12.25a2.51,2.51,0,0,0,2.51-2.51V56.62a2.51,2.51,0,0,0-2.51-2.51H461.08V40.58a2.51,2.51,0,0,0-2.51-2.51H445.78a2.51,2.51,0,0,0-2.51,2.51V54.12h-6.66a2.51,2.51,0,0,0-2.51,2.51V66.83a2.51,2.51,0,0,0,2.51,2.51h6.66V99.09C443.28,113.61,450.66,117.94,461.55,117.94ZM49.84,33.82A42.25,42.25,0,1,0,92.09,76.07,42.25,42.25,0,0,0,49.84,33.82ZM76.28,82a1.86,1.86,0,0,1-1.86,1.86H57.66v16.75a1.86,1.86,0,0,1-1.86,1.86H43.89A1.86,1.86,0,0,1,42,100.64V83.89H25.27A1.86,1.86,0,0,1,23.41,82V70.12a1.86,1.86,0,0,1,1.86-1.86H42V51.5a1.86,1.86,0,0,1,1.86-1.86H55.8a1.86,1.86,0,0,1,1.86,1.86V68.25H74.41a1.86,1.86,0,0,1,1.86,1.86ZM291.51,54.12H278.45a2.51,2.51,0,0,0-2.39,1.74L263.2,96.35,250,55.83a2.51,2.51,0,0,0-2.38-1.71H233.45a2.51,2.51,0,0,0-2.33,3.42l22.68,58.11c1.06,2.66-1.13,5.56-5.08,5.56a40.44,40.44,0,0,1-8.15-1,2.51,2.51,0,0,0-3.31,2.37v9a2.54,2.54,0,0,0,1.39,2.25c3.43,1.77,7.67,2.3,12.92,2.3,11.19,0,14.92-7.13,19.44-17.77L293.86,57.5A2.51,2.51,0,0,0,291.51,54.12Z"/></g><path id="Triton" d="M488.86,40.31h2.64V39h-6.79v1.32h2.61V48h1.54Zm8.8,7.69,2.64-7h.1l-.07,1.71V48h1.59V39h-2.25l-2.54,7-2.45-7h-2.34v9h1.49V42.62L493.75,41h.1l2.51,7Z"/></svg>