<?xml version="1.0" encoding="UTF-8" standalone="no"?>
<svg
   viewBox="0 0 500 99.714417"
   class="text-base-800"
   alt="StackRox Community"
   width="500"
   height="99.714417"
   version="1.1"
   id="svg10"
   sodipodi:docname="StackRox_logo.svg"
   inkscape:version="1.1.1 (3bf5ae0d25, 2021-09-20)"
   xmlns:inkscape="http://www.inkscape.org/namespaces/inkscape"
   xmlns:sodipodi="http://sodipodi.sourceforge.net/DTD/sodipodi-0.dtd"
   xmlns="http://www.w3.org/2000/svg"
   xmlns:svg="http://www.w3.org/2000/svg">
  <defs
     id="defs14" />
  <sodipodi:namedview
     id="namedview12"
     pagecolor="#ffffff"
     bordercolor="#666666"
     borderopacity="1.0"
     inkscape:pageshadow="2"
     inkscape:pageopacity="0.0"
     inkscape:pagecheckerboard="0"
     showgrid="false"
     fit-margin-top="0"
     fit-margin-left="0"
     fit-margin-right="0"
     fit-margin-bottom="0"
     inkscape:zoom="5.014218"
     inkscape:cx="105.40028"
     inkscape:cy="20.741021"
     inkscape:window-width="1920"
     inkscape:window-height="1010"
     inkscape:window-x="-6"
     inkscape:window-y="-6"
     inkscape:window-maximized="1"
     inkscape:current-layer="svg10" />
  <g
     fill="#344256"
     id="g8"
     transform="matrix(2.3798191,0,0,2.3798191,0,-0.23798191)">
    <path
       d="m 96,34.6 c 0.9,0 1.8,-0.1 2.7,-0.4 a 7,7 0 0 0 2.4,-1.2 5.9,5.9 0 0 0 2.2,-4.8 5.4,5.4 0 0 0 -2,-4.4 35.5,35.5 0 0 0 -5.9,-2.4 6,6 0 0 1 -1.4,-0.7 l -1,-1 c -0.2,-0.4 -0.3,-0.9 -0.3,-1.5 0,-0.6 0.2,-1 0.4,-1.5 0.3,-0.4 0.6,-0.8 1,-1 a 4,4 0 0 1 1.3,-0.7 5.6,5.6 0 0 1 3.9,0.4 4,4 0 0 1 1.7,1.4 l 2,-2 A 7,7 0 0 0 100.5,13 c -1,-0.5 -2.3,-0.7 -3.5,-0.7 -0.9,0 -1.7,0.1 -2.6,0.4 a 7,7 0 0 0 -2.3,1 c -0.7,0.6 -1.3,1.2 -1.7,2 -0.5,0.7 -0.7,1.6 -0.7,2.7 a 5.1,5.1 0 0 0 1.7,4.1 7,7 0 0 0 1.8,1 c 0.7,0.4 1.4,0.6 2,0.8 a 109.4,109.4 0 0 1 3.6,1.4 c 0.4,0.3 0.8,0.7 1,1.1 a 3.2,3.2 0 0 1 -1,4.4 c -0.3,0.3 -0.8,0.5 -1.3,0.6 a 5.5,5.5 0 0 1 -4.2,-0.4 c -0.8,-0.5 -1.5,-1 -2,-1.8 l -2.3,2 c 0.8,1 1.8,1.7 3,2.2 1.3,0.5 2.6,0.8 4,0.8 z m 15.3,-0.3 a 7.6,7.6 0 0 0 2.4,-0.4 v -2.3 l -0.9,0.3 H 112 c -0.7,0 -1.2,-0.1 -1.6,-0.5 -0.3,-0.4 -0.4,-1 -0.4,-1.8 v -7.4 h 3.7 V 19.9 H 110 v -4.1 h -2.8 v 4 h -2.7 v 2.4 h 2.7 v 7.7 c 0,1.4 0.3,2.6 1,3.3 0.7,0.7 1.8,1.1 3.1,1.1 z m 9,0.1 c 1.1,0 2,-0.2 2.9,-0.6 0.8,-0.4 1.4,-1 2,-1.8 0,0.7 0.1,1.4 0.3,2 h 2.5 l -0.2,-1.2 V 25 a 5,5 0 0 0 -0.4,-2.1 4.8,4.8 0 0 0 -2.9,-3 9.2,9.2 0 0 0 -5.9,0.1 9,9 0 0 0 -2.5,1.6 l 1.5,1.8 a 5.7,5.7 0 0 1 4,-1.6 c 1,0 1.9,0.2 2.5,0.7 0.7,0.5 1,1.3 1,2.4 v 0.4 l -3.6,0.1 c -1.1,0.1 -2.2,0.3 -3.1,0.6 -1,0.4 -1.7,0.9 -2.3,1.5 -0.6,0.6 -0.9,1.5 -0.9,2.5 0,0.9 0.2,1.6 0.5,2.1 0.3,0.6 0.8,1 1.3,1.4 l 1.6,0.7 1.8,0.2 z m 0.7,-2.2 -1,-0.1 c -0.4,0 -0.7,-0.2 -1,-0.4 L 118.3,31 a 2,2 0 0 1 -0.2,-1 c 0,-0.6 0.2,-1 0.6,-1.4 0.4,-0.4 0.9,-0.7 1.5,-0.9 a 27.3,27.3 0 0 1 4.2,-0.4 h 0.7 V 28 a 5,5 0 0 1 -1,3 c -0.8,0.8 -1.8,1.2 -3.1,1.2 z m 17.8,2.3 c 1.2,0 2.2,-0.2 3,-0.6 1,-0.4 1.7,-1 2.3,-1.7 l -1.9,-1.7 a 4,4 0 0 1 -1.4,1.2 6,6 0 0 1 -2,0.4 4.5,4.5 0 0 1 -3.4,-1.6 5,5 0 0 1 -1,-1.6 6,6 0 0 1 1,-5.5 c 0.4,-0.5 0.9,-0.9 1.4,-1.1 a 4.4,4.4 0 0 1 4,0 c 0.5,0.3 1,0.7 1.3,1.2 l 2,-1.7 a 5.4,5.4 0 0 0 -2.3,-1.7 7.9,7.9 0 0 0 -6,0 7.1,7.1 0 0 0 -4,3.8 8,8 0 0 0 -0.6,3 c 0,1.2 0.2,2.2 0.6,3.1 a 7,7 0 0 0 4,4 c 1,0.3 2,0.5 3,0.5 z m 10.6,-0.4 v -7.4 h 0.1 L 156,34 h 4 l -7.3,-7.8 6.6,-6.4 h -3.7 l -6,6.1 V 11.4 h -2.9 v 22.7 h 2.8 z m 15.7,0 v -9.5 h 3.1 l 5.4,9.5 h 3.6 l -5.9,-9.8 a 6,6 0 0 0 3.7,-1.8 5,5 0 0 0 1.5,-3.8 c 0,-1 -0.2,-2 -0.6,-2.7 a 5,5 0 0 0 -1.7,-1.8 c -0.7,-0.5 -1.5,-0.8 -2.4,-1 a 13,13 0 0 0 -2.9,-0.3 h -6.8 V 34 h 3 z m 3.4,-12 H 165 v -6.7 h 3.6 l 1.8,0.1 c 0.6,0.1 1.1,0.3 1.5,0.6 0.5,0.2 0.8,0.6 1,1 0.3,0.5 0.5,1 0.5,1.6 a 3,3 0 0 1 -0.4,1.6 3,3 0 0 1 -1.1,1 6,6 0 0 1 -1.6,0.7 l -2,0.1 z m 17.8,12.4 c 1.1,0 2.1,-0.2 3,-0.6 a 7.3,7.3 0 0 0 4.7,-7 c 0,-1 -0.2,-2 -0.6,-3 a 7,7 0 0 0 -4,-3.9 c -1,-0.3 -2,-0.5 -3,-0.5 a 7.3,7.3 0 0 0 -7,4.4 c -0.5,1 -0.7,2 -0.7,3 a 7.7,7.7 0 0 0 2.2,5.4 c 0.6,0.7 1.5,1.2 2.4,1.6 1,0.4 2,0.6 3,0.6 z m 0,-2.4 c -0.7,0 -1.4,-0.2 -2,-0.4 -0.6,-0.3 -1,-0.7 -1.5,-1.2 a 5,5 0 0 1 -0.9,-1.6 6,6 0 0 1 1,-5.5 4.4,4.4 0 0 1 3.4,-1.6 c 0.8,0 1.5,0.2 2,0.4 a 5,5 0 0 1 2.4,2.8 6,6 0 0 1 -0.9,5.5 c -0.4,0.5 -0.9,0.9 -1.5,1.2 -0.5,0.2 -1.2,0.4 -2,0.4 z m 12.4,2 4,-5.6 4,5.6 h 3.4 l -5.7,-7.5 5.1,-6.7 h -3.2 l -3.6,4.8 -3.4,-4.8 h -3.5 l 5.2,6.7 -5.7,7.5 z M 73.6,40.7 C 73.9,40.6 74.1,40.3 74,40 L 65,15 c 0,0 -0.1,-0.2 -0.3,-0.2 0,-0.1 -0.2,-0.1 -0.4,0 l -23,11.6 c -0.2,0.2 -0.3,0.5 -0.2,0.7 L 46.7,42 h 24 l 3,-1.3 z"
       fill="#344256"
       id="path2" />
    <path
       d="m 37.2,25.8 c -0.1,-0.3 0,-0.6 0.3,-0.7 L 59.5,14 57.2,7.6 56.8,7.2 h -0.5 l -29.4,15 c -0.3,0.1 -0.5,0.5 -0.4,0.9 L 33.6,42 h 9.6 z"
       fill="#344256"
       id="path4" />
    <path
       d="m 22.5,21.7 c -0.1,-0.3 0,-0.7 0.4,-0.8 L 49.9,7 47.6,0.5 c 0,-0.2 -0.2,-0.3 -0.4,-0.4 h -0.6 l -34,17.3 c -0.5,0.2 -0.7,0.6 -0.5,1 L 20.9,42 H 30 L 22.4,21.7 Z M 9,19.4 17.6,42 h -14 c 0,0 -0.2,0 -0.2,-0.2 L 0,32.4 V 32.2 L 8.6,19.4 a 0.3,0.3 0 0 1 0.5,0 z"
       fill="#344256"
       id="path6" />
  </g>
</svg>
