<?xml version="1.0" encoding="UTF-8" standalone="no"?>
<!-- Created with Inkscape (http://www.inkscape.org/) -->

<svg
   version="1.1"
   id="svg2"
   xml:space="preserve"
   width="1051.3333"
   height="187.57201"
   viewBox="0 0 1051.3333 187.57201"
   sodipodi:docname="GoogleCloud_logo.svg"
   inkscape:version="1.1.1 (3bf5ae0d25, 2021-09-20)"
   xmlns:inkscape="http://www.inkscape.org/namespaces/inkscape"
   xmlns:sodipodi="http://sodipodi.sourceforge.net/DTD/sodipodi-0.dtd"
   xmlns="http://www.w3.org/2000/svg"
   xmlns:svg="http://www.w3.org/2000/svg"><defs
     id="defs6"><clipPath
       clipPathUnits="userSpaceOnUse"
       id="clipPath16"><path
         d="M 0,140.679 H 788.5 V 0 H 0 Z"
         id="path14" /></clipPath></defs><sodipodi:namedview
     id="namedview4"
     pagecolor="#ffffff"
     bordercolor="#666666"
     borderopacity="1.0"
     inkscape:pageshadow="2"
     inkscape:pageopacity="0.0"
     inkscape:pagecheckerboard="0"
     showgrid="false"
     inkscape:zoom="1.0472417"
     inkscape:cx="525.66663"
     inkscape:cy="93.579163"
     inkscape:window-width="1920"
     inkscape:window-height="1010"
     inkscape:window-x="-6"
     inkscape:window-y="-6"
     inkscape:window-maximized="1"
     inkscape:current-layer="g8" /><g
     id="g8"
     inkscape:groupmode="layer"
     inkscape:label="Google Cloud"
     transform="matrix(1.3333333,0,0,-1.3333333,0,187.572)"><g
       id="g10"><g
         id="g12"
         clip-path="url(#clipPath16)"><g
           id="g18"
           transform="translate(53.0786,140.6792)"><path
             d="m 0,0 h 3.832 c 13.307,-0.29 26.395,-5.64 35.795,-15.114 -3.471,-3.542 -7.015,-6.941 -10.413,-10.485 -5.278,4.774 -11.642,8.461 -18.584,9.763 -10.269,2.169 -21.332,0.218 -29.937,-5.641 -9.401,-6.147 -15.764,-16.558 -17.138,-27.695 -1.518,-10.992 1.591,-22.562 8.75,-31.093 6.869,-8.316 17.355,-13.525 28.202,-13.886 10.123,-0.576 20.681,2.531 28.056,9.618 5.785,4.991 8.461,12.583 9.328,19.96 -12.004,0 -24.006,-0.073 -36.011,0 v 14.895 h 50.545 c 2.604,-15.98 -1.156,-33.987 -13.304,-45.412 -8.099,-8.097 -19.308,-12.869 -30.733,-13.813 -11.064,-1.082 -22.489,1.013 -32.323,6.367 -11.787,6.288 -21.188,16.918 -25.815,29.43 -4.339,11.497 -4.412,24.512 -0.362,36.082 3.688,10.559 10.775,19.886 19.886,26.394 C -21.477,-4.194 -10.846,-0.651 0,0"
             style="fill:#5178bc;fill-opacity:1;fill-rule:nonzero;stroke:none"
             id="path20" /></g><g
           id="g22"
           transform="translate(343.0488,136.9189)"><path
             d="m 0,0 h 15.474 v -103.262 c -5.134,0 -10.341,-0.071 -15.474,0.073 C 0.072,-68.842 0,-34.42 0,0"
             style="fill:#3db149;fill-opacity:1;fill-rule:nonzero;stroke:none"
             id="path24" /></g><g
           id="g26"
           transform="translate(139.9248,101.1245)"><path
             d="m 0,0 c 9.545,1.808 19.885,-0.217 27.768,-5.93 7.159,-5.062 12.148,-13.016 13.667,-21.693 1.952,-10.049 -0.506,-21.044 -7.015,-28.998 -7.013,-8.893 -18.511,-13.666 -29.72,-12.942 -10.268,0.578 -20.246,5.713 -26.32,14.099 -6.871,9.258 -8.534,21.985 -4.773,32.832 C -22.633,-10.992 -12.004,-2.096 0,0 m 2.169,-13.74 c -3.904,-1.01 -7.52,-3.254 -10.123,-6.433 -7.015,-8.389 -6.581,-22.057 1.157,-29.868 4.411,-4.481 11.063,-6.58 17.21,-5.35 5.712,1.014 10.702,4.846 13.45,9.908 4.772,8.604 3.399,20.465 -3.905,27.189 -4.7,4.339 -11.569,6.146 -17.789,4.554"
             style="fill:#ef4124;fill-opacity:1;fill-rule:nonzero;stroke:none"
             id="path28" /></g><g
           id="g30"
           transform="translate(216.5752,101.1245)"><path
             d="m 0,0 c 10.919,2.097 22.851,-0.94 31.021,-8.604 13.305,-11.932 14.751,-34.275 3.399,-48.017 -6.869,-8.674 -18.005,-13.448 -28.998,-12.942 -10.485,0.289 -20.825,5.495 -27.044,14.099 -7.014,9.475 -8.532,22.49 -4.555,33.555 C -22.2,-10.63 -11.786,-2.024 0,0 m 2.169,-13.74 c -3.905,-1.01 -7.521,-3.254 -10.123,-6.361 -6.942,-8.245 -6.653,-21.694 0.795,-29.576 4.412,-4.7 11.281,-7.016 17.644,-5.714 5.64,1.085 10.703,4.846 13.451,9.908 4.7,8.677 3.327,20.536 -4.05,27.261 -4.7,4.338 -11.57,6.074 -17.717,4.482"
             style="fill:#f8bc18;fill-opacity:1;fill-rule:nonzero;stroke:none"
             id="path32" /></g><g
           id="g34"
           transform="translate(281.583,96.9302)"><path
             d="m 0,0 c 8.317,5.207 19.38,6.654 28.346,2.17 2.82,-1.23 5.135,-3.326 7.376,-5.423 0.073,1.952 0,3.977 0.073,6.002 4.844,-0.073 9.688,0 14.606,-0.073 v -63.777 c -0.073,-9.62 -2.531,-19.817 -9.473,-26.83 -7.593,-7.737 -19.235,-10.121 -29.72,-8.534 -11.209,1.666 -20.971,9.836 -25.31,20.176 4.339,2.097 8.896,3.76 13.378,5.711 2.531,-5.928 7.666,-10.989 14.101,-12.147 6.435,-1.156 13.883,0.435 18.079,5.785 4.481,5.496 4.481,13.015 4.265,19.741 -3.326,-3.254 -7.158,-6.145 -11.786,-7.232 -10.053,-2.819 -21.116,0.65 -28.853,7.449 -7.811,6.797 -12.437,17.281 -12.004,27.695 C -16.704,-17.5 -10.051,-6.146 0,0 m 14.969,-9.255 c -4.411,-0.724 -8.533,-3.183 -11.353,-6.582 -6.797,-8.098 -6.797,-21.042 0.073,-28.996 3.905,-4.702 10.195,-7.303 16.27,-6.653 5.712,0.577 10.992,4.194 13.812,9.183 4.773,8.461 3.976,19.958 -2.458,27.334 -3.979,4.556 -10.342,6.798 -16.344,5.714"
             style="fill:#5178bc;fill-opacity:1;fill-rule:nonzero;stroke:none"
             id="path36" /></g><g
           id="g38"
           transform="translate(377.1074,93.2427)"><path
             d="M 0,0 C 8.678,8.098 22.055,10.847 33.191,6.58 43.748,2.603 50.473,-7.447 53.871,-17.79 38.18,-24.297 22.561,-30.732 6.869,-37.24 c 2.171,-4.12 5.496,-7.883 9.98,-9.4 6.29,-2.242 13.813,-1.447 19.089,2.748 2.097,1.59 3.763,3.688 5.351,5.711 3.977,-2.676 7.955,-5.279 11.932,-7.953 C 47.58,-54.596 38.107,-60.523 27.91,-61.466 16.631,-62.837 4.628,-58.5 -2.676,-49.677 -14.68,-35.794 -13.523,-12.509 0,0 m 7.737,-13.377 c -2.459,-3.543 -3.47,-7.881 -3.398,-12.15 10.485,4.339 20.97,8.677 31.456,13.089 -1.736,4.049 -5.932,6.508 -10.197,7.157 C 18.729,-4.05 11.57,-7.738 7.737,-13.377"
             style="fill:#ef4124;fill-opacity:1;fill-rule:nonzero;stroke:none"
             id="path40" /></g><g
           id="g42"
           transform="translate(777.1709,66.8877)"><path
             d="m 0,0 c 0,15.104 -9.711,23.737 -20.5,23.737 -10.789,0 -20.499,-8.633 -20.499,-23.737 0,-14.563 9.71,-23.732 20.499,-23.732 C -10.252,-23.194 0,-14.563 0,0 m -53.945,0 c 0,19.963 14.563,34.527 30.748,34.527 10.247,0 18.341,-5.395 22.118,-11.33 h 0.537 L -1.079,32.37 V 62.577 H 11.329 V -32.367 H 0 v 9.173 h -0.542 c -3.775,-5.934 -11.866,-11.329 -22.114,-11.329 -16.726,0 -31.289,14.564 -31.289,34.523 m -21.576,-32.367 v 9.173 h -0.54 c -3.776,-5.934 -11.867,-11.329 -20.5,-11.329 -16.721,0 -24.815,11.329 -24.815,27.51 v 39.92 h 12.408 V -4.854 c 0,-13.485 7.011,-18.34 16.185,-18.34 10.786,0 17.262,10.25 17.262,19.96 V 32.37 h 12.406 V -32.901 H -75.521 Z M -142.951,0 c 0,15.104 -10.25,23.737 -21.039,23.737 -10.791,0 -21.036,-8.633 -21.036,-23.737 0,-15.101 10.245,-23.732 21.036,-23.732 10.789,0.538 21.039,9.169 21.039,23.732 m 12.408,0 c 0,-19.959 -14.028,-34.523 -33.447,-34.523 -19.419,0 -33.443,15.105 -33.443,34.523 0,19.963 14.024,34.527 33.443,34.527 19.419,0 33.447,-14.564 33.447,-34.527 m -88.471,62.577 h 12.408 v -94.944 h -12.408 z m -96.557,-47.473 c 0,28.052 21.577,49.63 49.628,49.63 14.564,0 26.43,-5.934 35.063,-15.643 l -8.633,-8.093 c -6.469,8.093 -15.638,11.866 -26.43,11.866 -19.959,0 -36.679,-14.563 -36.679,-37.76 0,-23.192 16.72,-37.755 36.679,-37.755 11.868,0 22.117,5.388 29.129,14.023 l 8.633,-8.635 c -8.093,-9.707 -21.581,-16.719 -37.762,-16.719 -28.051,-0.541 -49.628,20.498 -49.628,49.086"
             style="fill:#787778;fill-opacity:1;fill-rule:nonzero;stroke:none"
             id="path44" /></g></g></g></g></svg>
