<?xml version="1.0" encoding="UTF-8" standalone="no"?>
<svg
   viewBox="0 0 500 47.998232"
   width="500"
   height="47.99823"
   version="1.1"
   id="svg24"
   sodipodi:docname="Cloudsoft_svgexport-1.svg"
   inkscape:version="1.1.1 (3bf5ae0d25, 2021-09-20)"
   xmlns:inkscape="http://www.inkscape.org/namespaces/inkscape"
   xmlns:sodipodi="http://sodipodi.sourceforge.net/DTD/sodipodi-0.dtd"
   xmlns="http://www.w3.org/2000/svg"
   xmlns:svg="http://www.w3.org/2000/svg">
  <defs
     id="defs28" />
  <sodipodi:namedview
     id="namedview26"
     pagecolor="#ffffff"
     bordercolor="#666666"
     borderopacity="1.0"
     inkscape:pageshadow="2"
     inkscape:pageopacity="0.0"
     inkscape:pagecheckerboard="0"
     showgrid="false"
     fit-margin-top="0"
     fit-margin-left="0"
     fit-margin-right="0"
     fit-margin-bottom="0"
     inkscape:zoom="3.7405949"
     inkscape:cx="122.57409"
     inkscape:cy="-26.733716"
     inkscape:window-width="1920"
     inkscape:window-height="1010"
     inkscape:window-x="-6"
     inkscape:window-y="-6"
     inkscape:window-maximized="1"
     inkscape:current-layer="svg24" />
  <g
     id="g35763"
     transform="matrix(2.4998894,0,0,2.4998894,0.02212448,7.9525793e-4)">
    <path
       data-name="Path 27"
       d="M 9.87,0.094 H 9.755 A 9.483,9.483 0 1 0 9.744,19.052 h 0.129 a 10.1,10.1 0 0 0 5.516,-1.749 l 0.123,-0.084 v -3.421 l -0.5,0.611 A 7.146,7.146 0 1 1 9.76,2.435 7.17,7.17 0 0 1 15.036,4.763 L 15.541,5.39 V 1.953 L 15.419,1.867 A 10.3,10.3 0 0 0 9.87,0.094 Z"
       fill="#ffffff"
       id="path2"
       style="fill:#102752;fill-opacity:1" />
    <path
       data-name="Path 28"
       d="M 26.574,0.147 24.03,0.907 V 18.662 H 35.001 L 35.81,16.373 H 26.574 Z"
       fill="#ffffff"
       id="path4"
       style="fill:#102752;fill-opacity:1" />
    <path
       data-name="Path 29"
       d="m 84.521,11.174 c 0,2.661 -0.527,5.714 -4.63,5.714 -3.251,0 -4.831,-1.869 -4.831,-5.714 V 0.199 l -2.544,0.76 v 10.217 c -0.018,2.81 0.617,4.823 1.938,6.152 a 7.379,7.379 0 0 0 5.438,1.853 c 6.314,0 7.151,-4.277 7.173,-8 V 0.199 l -2.543,0.76 z"
       fill="#ffffff"
       id="path6"
       style="fill:#102752;fill-opacity:1" />
    <path
       data-name="Path 30"
       d="M 109.391,3.177 A 9.749,9.749 0 0 0 102.209,0.44 h -5.906 v 18.221 h 5.906 a 9.676,9.676 0 0 0 7.135,-2.8 10.172,10.172 0 0 0 0.047,-12.681 z m -2.072,11.047 a 6.875,6.875 0 0 1 -5.11,2.149 H 98.847 V 2.754 h 3.362 a 7,7 0 0 1 5.2,2.049 6.231,6.231 0 0 1 1.606,4.73 v 0.038 a 6.222,6.222 0 0 1 -1.696,4.652 z"
       fill="#ffffff"
       id="path8"
       style="fill:#102752;fill-opacity:1" />
    <path
       data-name="Path 31"
       d="m 125.969,8.149 -0.342,-0.118 c -1.89,-0.656 -4.032,-1.4 -4.032,-2.881 0,-1.819 1.084,-2.666 3.413,-2.666 a 6.9,6.9 0 0 1 4.958,1.85 l 0.493,0.537 V 1.932 l -0.087,-0.084 a 7.5,7.5 0 0 0 -5.364,-1.776 c -2.941,0 -6.085,1.333 -6.085,5.078 0,3.311 3.826,4.594 5.666,5.212 l 0.226,0.073 c 2.059,0.68 4.392,1.45 4.392,3.074 0,2.013 -1.439,3.034 -4.275,3.034 a 10.875,10.875 0 0 1 -5.591,-2.22 l -0.468,-0.393 v 2.9 l 0.1,0.086 a 9.072,9.072 0 0 0 5.96,2.011 c 4.609,0 6.945,-1.824 6.945,-5.422 -0.002,-3.347 -3.557,-4.556 -5.909,-5.356 z"
       fill="#ffffff"
       id="path10"
       style="fill:#102752;fill-opacity:1" />
    <path
       data-name="Path 32"
       d="m 148.684,0.097 a 9.483,9.483 0 1 0 9.757,9.479 9.632,9.632 0 0 0 -9.757,-9.479 z m 0,16.619 a 7.14,7.14 0 1 1 7.162,-7.14 7.158,7.158 0 0 1 -7.162,7.14 z"
       fill="#ffffff"
       id="path12"
       style="fill:#102752;fill-opacity:1" />
    <path
       data-name="Path 33"
       d="m 166.784,18.662 h 2.544 v -7.819 h 6.831 l 0.809,-2.289 h -7.64 v -5.7 h 8.4 l 0.806,-2.314 h -11.752 z"
       fill="#ffffff"
       id="path14"
       style="fill:#102752;fill-opacity:1" />
    <path
       data-name="Path 34"
       d="m 185.62,0.514 -0.806,2.314 h 6.321 v 15.833 h 2.544 V 2.83 h 5.515 L 200,0.516 Z"
       fill="#ffffff"
       id="path16"
       style="fill:#102752;fill-opacity:1" />
    <path
       data-name="Path 35"
       d="M 45.637,9.432 A 7.074,7.074 0 0 1 58.629,5.558 h 2.68 a 9.431,9.431 0 0 0 -17.957,2.7 h -5.969 v 2.357 h 8.253 z"
       fill="#25d692"
       id="path18" />
    <path
       data-name="Path 36"
       d="M 59.788,9.727 A 7.077,7.077 0 0 1 46.664,13.4 h -2.645 a 9.434,9.434 0 0 0 18.05,-2.494 h 5.969 V 8.549 h -8.253 z"
       fill="#25d692"
       id="path20" />
  </g>
</svg>
