<?xml version="1.0" encoding="UTF-8" standalone="no"?>
<!-- Generator: Adobe Illustrator 25.2.0, SVG Export Plug-In . SVG Version: 6.00 Build 0)  -->

<svg
   version="1.1"
   id="katman_1"
   x="0px"
   y="0px"
   viewBox="0 0 500 263.51083"
   xml:space="preserve"
   sodipodi:docname="Cisco_logo.svg"
   width="500"
   height="263.51083"
   inkscape:version="1.1.1 (3bf5ae0d25, 2021-09-20)"
   xmlns:inkscape="http://www.inkscape.org/namespaces/inkscape"
   xmlns:sodipodi="http://sodipodi.sourceforge.net/DTD/sodipodi-0.dtd"
   xmlns="http://www.w3.org/2000/svg"
   xmlns:svg="http://www.w3.org/2000/svg"><defs
   id="defs25" /><sodipodi:namedview
   id="namedview23"
   pagecolor="#ffffff"
   bordercolor="#666666"
   borderopacity="1.0"
   inkscape:pageshadow="2"
   inkscape:pageopacity="0.0"
   inkscape:pagecheckerboard="0"
   showgrid="false"
   fit-margin-top="0"
   fit-margin-left="0"
   fit-margin-right="0"
   fit-margin-bottom="0"
   inkscape:zoom="1.8892857"
   inkscape:cx="210.39698"
   inkscape:cy="110.62382"
   inkscape:window-width="1920"
   inkscape:window-height="1010"
   inkscape:window-x="-6"
   inkscape:window-y="-6"
   inkscape:window-maximized="1"
   inkscape:current-layer="katman_1" />
<style
   type="text/css"
   id="style2">
	.st0{fill:#049FD9;}
</style>
<g
   id="g851"
   transform="matrix(1.1903793,0,0,1.1903793,-83.30664,-106.30798)"><g
     transform="matrix(1.66667,0,0,1.66667,100,105.006)"
     id="g20">
	<path
   class="st0"
   d="m 106.23,79.44 c -0.33,-0.09 -5.39,-1.4 -10.77,-1.4 -10.18,0 -16.32,5.5 -16.32,13.69 0,7.25 5.13,10.87 11.29,12.81 0.68,0.23 1.69,0.54 2.36,0.76 2.74,0.86 4.93,2.14 4.93,4.36 0,2.48 -2.53,4.09 -8.02,4.09 -4.83,0 -9.46,-1.38 -10.44,-1.63 v 10.08 c 0.54,0.12 6.05,1.2 11.93,1.2 8.46,0 18.13,-3.69 18.13,-14.69 0,-5.34 -3.27,-10.25 -10.44,-12.53 l -3.05,-0.97 c -1.82,-0.57 -5.07,-1.5 -5.07,-4.17 0,-2.11 2.41,-3.59 6.84,-3.59 3.82,0 8.47,1.28 8.64,1.34 v -9.35 z m 93.38,21.29 c 0,6.37 -4.88,11.53 -11.43,11.53 -6.56,0 -11.42,-5.15 -11.42,-11.53 0,-6.36 4.87,-11.51 11.42,-11.51 6.55,-0.01 11.43,5.15 11.43,11.51 M 188.18,78.06 c -13.47,0 -23.13,10.16 -23.13,22.66 0,12.53 9.66,22.68 23.13,22.68 13.47,0 23.14,-10.15 23.14,-22.68 0,-12.5 -9.67,-22.66 -23.14,-22.66 M 64.32,122.63 H 53.27 V 78.84 h 11.05"
   id="path4" />
	<path
   class="st0"
   d="M 38.08,79.63 C 37.04,79.32 33.2,78.06 28,78.06 c -13.45,0 -23.32,9.59 -23.32,22.66 0,14.11 10.9,22.68 23.32,22.68 4.93,0 8.7,-1.17 10.08,-1.56 v -11.75 c -0.47,0.26 -4.09,2.32 -9.28,2.32 -7.36,0 -12.11,-5.18 -12.11,-11.69 0,-6.71 4.95,-11.68 12.11,-11.68 5.28,0 8.84,2.11 9.28,2.34"
   id="path6" />
	<path
   class="st0"
   d="m 153.42,79.63 c -1.04,-0.31 -4.88,-1.57 -10.08,-1.57 -13.45,0 -23.32,9.59 -23.32,22.66 0,14.11 10.9,22.68 23.32,22.68 4.93,0 8.7,-1.17 10.08,-1.56 v -11.75 c -0.47,0.26 -4.09,2.32 -9.28,2.32 -7.36,0 -12.11,-5.18 -12.11,-11.69 0,-6.71 4.95,-11.68 12.11,-11.68 5.28,0 8.84,2.11 9.28,2.34"
   id="path8" />
	<path
   class="st0"
   d="m 53.24,-3.95 c 0,-3.02 -2.47,-5.47 -5.49,-5.47 -3.02,0 -5.49,2.45 -5.49,5.47 V 54.2 c 0,3.04 2.47,5.48 5.49,5.48 3.02,0 5.49,-2.45 5.49,-5.48 z M 23.1,16.69 c 0,-3.02 -2.46,-5.47 -5.49,-5.47 -3.03,0 -5.49,2.45 -5.49,5.47 v 26.58 c 0,3.03 2.46,5.48 5.49,5.48 3.03,0 5.49,-2.45 5.49,-5.48 z M -7.03,31.78 c 0,-3.02 -2.46,-5.46 -5.49,-5.46 -3.02,0 -5.49,2.45 -5.49,5.46 v 11.5 c 0,3.03 2.47,5.48 5.49,5.48 3.02,0 5.49,-2.45 5.49,-5.48"
   id="path10" />
	<path
   class="st0"
   d="m 42.27,-3.95 c 0,-3.02 2.47,-5.47 5.49,-5.47 3.02,0 5.49,2.45 5.49,5.47 V 54.2 c 0,3.04 -2.47,5.48 -5.49,5.48 -3.02,0 -5.49,-2.45 -5.49,-5.48 z M 72.4,16.69 c 0,-3.02 2.46,-5.47 5.49,-5.47 3.02,0 5.49,2.45 5.49,5.47 v 26.58 c 0,3.03 -2.46,5.48 -5.49,5.48 -3.02,0 -5.49,-2.45 -5.49,-5.48 z m 30.13,15.09 c 0,-3.02 2.46,-5.46 5.49,-5.46 3.02,0 5.49,2.45 5.49,5.46 v 11.5 c 0,3.03 -2.47,5.48 -5.49,5.48 -3.02,0 -5.49,-2.45 -5.49,-5.48"
   id="path12" />
	<g
   transform="matrix(-1,0,0,1,216,0)"
   id="g18">
		<path
   class="st0"
   d="m 53.24,-3.95 c 0,-3.02 -2.47,-5.47 -5.49,-5.47 -3.02,0 -5.49,2.45 -5.49,5.47 V 54.2 c 0,3.04 2.47,5.48 5.49,5.48 3.02,0 5.49,-2.45 5.49,-5.48 z M 23.1,16.69 c 0,-3.02 -2.46,-5.47 -5.49,-5.47 -3.03,0 -5.49,2.45 -5.49,5.47 v 26.58 c 0,3.03 2.46,5.48 5.49,5.48 3.03,0 5.49,-2.45 5.49,-5.48 z M -7.03,31.78 c 0,-3.02 -2.46,-5.46 -5.49,-5.46 -3.02,0 -5.49,2.45 -5.49,5.46 v 11.5 c 0,3.03 2.47,5.48 5.49,5.48 3.02,0 5.49,-2.45 5.49,-5.48"
   id="path14" />
		<path
   class="st0"
   d="m 42.27,-3.95 c 0,-3.02 2.47,-5.47 5.49,-5.47 3.02,0 5.49,2.45 5.49,5.47 V 54.2 c 0,3.04 -2.47,5.48 -5.49,5.48 -3.02,0 -5.49,-2.45 -5.49,-5.48 z M 72.4,16.69 c 0,-3.02 2.46,-5.47 5.49,-5.47 3.02,0 5.49,2.45 5.49,5.47 v 26.58 c 0,3.03 -2.46,5.48 -5.49,5.48 -3.02,0 -5.49,-2.45 -5.49,-5.48 z m 30.13,15.09 c 0,-3.02 2.46,-5.46 5.49,-5.46 3.02,0 5.49,2.45 5.49,5.46 v 11.5 c 0,3.03 -2.47,5.48 -5.49,5.48 -3.02,0 -5.49,-2.45 -5.49,-5.48"
   id="path16" />
	</g>
</g></g>
</svg>
