<?xml version="1.0" encoding="UTF-8" standalone="no"?>
<svg
   id="Layer_1"
   viewBox="0 0 1200 404.14808"
   version="1.1"
   sodipodi:docname="Iron_logo_1200.svg"
   width="1200"
   height="404.14807"
   inkscape:version="1.1.1 (3bf5ae0d25, 2021-09-20)"
   xmlns:inkscape="http://www.inkscape.org/namespaces/inkscape"
   xmlns:sodipodi="http://sodipodi.sourceforge.net/DTD/sodipodi-0.dtd"
   xmlns="http://www.w3.org/2000/svg"
   xmlns:svg="http://www.w3.org/2000/svg">
  <defs
     id="defs15" />
  <sodipodi:namedview
     id="namedview13"
     pagecolor="#ffffff"
     bordercolor="#666666"
     borderopacity="1.0"
     inkscape:pageshadow="2"
     inkscape:pageopacity="0.0"
     inkscape:pagecheckerboard="0"
     showgrid="false"
     fit-margin-top="0"
     fit-margin-left="0"
     fit-margin-right="0"
     fit-margin-bottom="0"
     inkscape:zoom="0.59696697"
     inkscape:cx="592.16007"
     inkscape:cy="-56.954575"
     inkscape:window-width="1920"
     inkscape:window-height="1010"
     inkscape:window-x="-6"
     inkscape:window-y="-6"
     inkscape:window-maximized="1"
     inkscape:current-layer="Layer_1" />
  <style
     id="style2">.st0{fill:#3177BC;} .st1{fill:#2E343C;}</style>
  <g
     id="g836"
     transform="matrix(3.8289726,0,0,3.8289726,0,0.19144863)">
    <path
       class="st0"
       d="m 53.9,44 12.5,-1.9 0.7,-6.3 H 26.5 l 0.7,6.3 12.5,1.9 c 0.8,0.1 1.3,0.8 1.3,1.5 v 14.6 c 0,0.8 -0.6,1.4 -1.3,1.5 l -12.5,1.9 -0.7,6.3 H 67 L 66.3,63.5 53.8,61.6 C 53,61.5 52.5,60.8 52.5,60.1 V 45.5 c 0.1,-0.8 0.6,-1.4 1.4,-1.5 z"
       id="path4" />
    <path
       class="st0"
       d="M 89.7,23.6 50.6,1 C 48.2,-0.4 45.3,-0.4 42.9,1 L 3.8,23.6 C 1.5,25 0,27.5 0,30.2 v 45.1 c 0,2.7 1.5,5.3 3.8,6.6 l 39.1,22.6 c 1.2,0.7 2.5,1 3.8,1 1.3,0 2.7,-0.4 3.8,-1 L 89.7,82 c 2.4,-1.4 3.8,-3.9 3.8,-6.6 V 30.2 c 0,-2.7 -1.4,-5.2 -3.8,-6.6 z M 67.9,60.7 c 0.7,0.1 1.2,0.7 1.3,1.3 l 1,9.2 c 0,0.4 -0.1,0.9 -0.4,1.2 -0.3,0.3 -0.7,0.5 -1.1,0.5 H 24.8 c -0.4,0 -0.8,-0.2 -1.1,-0.5 -0.3,-0.3 -0.4,-0.8 -0.4,-1.2 l 1,-9.2 c 0.1,-0.7 0.6,-1.2 1.3,-1.3 l 12.3,-1.8 v -12 L 25.6,45 c -0.7,-0.1 -1.2,-0.7 -1.3,-1.3 l -1,-9.2 c 0,-0.4 0.1,-0.9 0.4,-1.2 0.3,-0.3 0.7,-0.5 1.1,-0.5 h 43.9 c 0.4,0 0.8,0.2 1.1,0.5 0.3,0.3 0.4,0.8 0.4,1.2 l -1,9.2 c -0.1,0.7 -0.6,1.2 -1.3,1.3 l -12.3,1.8 v 12 z"
       id="path6" />
    <g
       id="g10">
      <path
         class="st1"
         d="m 230.6,34.1 c -14.2,0 -25.7,11.1 -25.7,24.8 0,13.7 11.5,24.8 25.7,24.8 14.2,0 25.7,-11.1 25.7,-24.8 0,-13.6 -11.5,-24.8 -25.7,-24.8 z M 243.5,59 c 0,7.5 -5.8,13.6 -12.9,13.6 -7.1,0 -12.9,-6.1 -12.9,-13.6 0,-7.5 5.8,-13.6 12.9,-13.6 7.1,0 12.9,6 12.9,13.6 z M 160.4,23.3 h -11.9 c -0.4,0 -0.7,0.3 -0.7,0.7 v 58.6 c 0,0.4 0.3,0.7 0.7,0.7 h 11.9 c 0.4,0 0.7,-0.3 0.7,-0.7 V 23.9 c 0,-0.3 -0.3,-0.6 -0.7,-0.6 z m 40.9,10.8 c -3.8,0.1 -7.1,0.9 -10,2.6 -2.2,1.3 -4,3 -5.5,5.2 v -6.7 c 0,-0.4 -0.3,-0.7 -0.7,-0.7 h -11.5 c -0.4,0 -0.7,0.3 -0.7,0.7 v 47.4 c 0,0.4 0.3,0.7 0.7,0.7 h 11.5 c 0.4,0 0.7,-0.3 0.7,-0.7 V 59.7 c 0,-4.1 1.4,-7.5 4.2,-9.9 2.5,-2.2 5.8,-3.3 9.8,-3.3 h 1.4 c 0.2,0 0.3,-0.1 0.5,-0.2 0.1,-0.1 0.2,-0.3 0.2,-0.5 V 34.7 c 0,-0.2 -0.1,-0.4 -0.2,-0.5 0,-0.1 -0.2,-0.1 -0.4,-0.1 z m 107.1,5.1 c -3.2,-3.4 -7.7,-5.1 -13.3,-5.1 -7.4,0.1 -12.8,2.7 -16.3,7.6 v -6.5 c 0,-0.4 -0.3,-0.7 -0.7,-0.7 h -11.5 c -0.4,0 -0.7,0.3 -0.7,0.7 v 47.4 c 0,0.4 0.3,0.7 0.7,0.7 h 11.5 c 0.4,0 0.7,-0.3 0.7,-0.7 V 59.3 c 0,-3.8 1.1,-6.9 3.2,-9.3 2.1,-2.4 4.9,-3.6 8.6,-3.7 3,0 5.5,0.9 7.2,2.7 1.8,1.8 2.6,4.3 2.6,7.4 v 26.2 c 0,0.4 0.3,0.7 0.7,0.7 h 11.6 c 0.4,0 0.7,-0.3 0.7,-0.7 V 53 c -0.1,-5.8 -1.7,-10.4 -5,-13.8 z"
         id="path8" />
    </g>
  </g>
</svg>
