<?xml version="1.0" encoding="UTF-8" standalone="no"?>
<!-- Created with Inkscape (http://www.inkscape.org/) -->

<svg
   version="1.1"
   id="svg2"
   xml:space="preserve"
   width="1500"
   height="281.62857"
   viewBox="0 0 1500 281.62857"
   sodipodi:docname="Raygun-Logo-Lockup-Stealth-Large.svg"
   inkscape:version="1.1.1 (3bf5ae0d25, 2021-09-20)"
   xmlns:inkscape="http://www.inkscape.org/namespaces/inkscape"
   xmlns:sodipodi="http://sodipodi.sourceforge.net/DTD/sodipodi-0.dtd"
   xmlns="http://www.w3.org/2000/svg"
   xmlns:svg="http://www.w3.org/2000/svg"><defs
     id="defs6" /><sodipodi:namedview
     id="namedview4"
     pagecolor="#ffffff"
     bordercolor="#666666"
     borderopacity="1.0"
     inkscape:pageshadow="2"
     inkscape:pageopacity="0.0"
     inkscape:pagecheckerboard="0"
     showgrid="false"
     fit-margin-top="0"
     fit-margin-left="0"
     fit-margin-right="0"
     fit-margin-bottom="0"
     inkscape:zoom="0.45244567"
     inkscape:cx="1088.5285"
     inkscape:cy="205.54954"
     inkscape:window-width="1920"
     inkscape:window-height="1010"
     inkscape:window-x="-6"
     inkscape:window-y="-6"
     inkscape:window-maximized="1"
     inkscape:current-layer="g8" /><g
     id="g8"
     inkscape:groupmode="layer"
     inkscape:label="ink_ext_XXXXXX"
     transform="matrix(1.3333333,0,0,-1.3333333,-137.20133,550.98534)"><g
       id="g10"
       transform="matrix(0.06886256,0,0,0.06886256,32.04074,128.67206)"><path
         d="m 3661.56,3307.2 c -62.19,6.35 -124.88,11.08 -188,14.17 -144.92,164.01 -356.82,267.42 -592.89,267.42 -314.56,0 -586.23,-183.62 -713.67,-449.53 -255.22,-86.65 -497.36,-201.73 -722.64,-341.4 97.31,-60.34 197.78,-116.05 301.07,-166.91 -258.91,-59.31 -500.61,-163.69 -716.42,-304.58 214.56,85.8 448.47,133.5 693.65,133.5 89.4,0 177.11,-7.07 263.16,-19.26 -27.4,68.56 -47.14,140.98 -58.18,216.21 15.8,-45.95 35.01,-90.31 57.28,-132.85 59.9,-24.12 120.61,-46.64 182.08,-67.51 127.44,-265.91 399.11,-449.56 713.67,-449.56 236.04,0 447.97,103.44 592.89,267.42 63.09,3.09 125.75,7.82 187.96,14.17 -5.72,169.79 -8.63,339.67 -8.63,508.71 0,169.48 2.91,339.8 8.67,510 m -211.49,-866.22 c -2.22,-3.6 -4.51,-7.13 -6.82,-10.67 -34.28,-52.39 -75.67,-99.72 -122.81,-140.57 -4.07,-3.5 -8.19,-6.98 -12.32,-10.42 -41.48,-34.22 -87.15,-63.59 -136.1,-87.18 -9.8,-4.72 -19.71,-9.22 -29.78,-13.45 -20.09,-8.51 -40.7,-16.08 -61.75,-22.61 -5.26,-1.63 -10.54,-3.22 -15.83,-4.73 -58.46,-16.61 -120.18,-25.49 -183.96,-25.49 -173.98,0 -332.51,66.13 -451.85,174.58 -7.94,7.25 -15.73,14.67 -23.33,22.27 -7.6,7.6 -15.02,15.39 -22.24,23.33 -7.26,7.95 -14.3,16.08 -21.15,24.37 -15.73,19.11 -30.44,39.13 -44.04,59.9 -4.13,6.32 -8.2,12.67 -12.11,19.12 -61.75,101.6 -97.31,220.87 -97.31,348.46 0,162.35 57.62,311.28 153.46,427.42 3.44,4.13 6.91,8.26 10.42,12.32 17.61,20.31 36.41,39.57 56.3,57.65 5.79,5.26 11.73,10.39 17.71,15.46 10.44,8.85 21.11,17.39 32.06,25.62 8.63,6.44 17.42,12.66 26.34,18.73 6.16,4.13 12.42,8.17 18.7,12.11 5.57,3.5 11.17,6.91 16.83,10.23 14.33,8.44 29.03,16.36 44.01,23.74 8.64,4.22 17.36,8.29 26.18,12.17 10.89,4.78 21.93,9.29 33.13,13.51 3.29,1.22 6.57,2.44 9.89,3.63 70.91,25.46 147.33,39.35 227,39.35 98.56,0 192.19,-21.21 276.52,-59.34 4.97,-2.25 9.88,-4.57 14.8,-6.91 225.22,-108.51 380.62,-338.96 380.62,-605.69 0,-131.16 -37.6,-253.5 -102.57,-356.91"
         style="fill:#2d3342;fill-opacity:1;fill-rule:nonzero;stroke:none"
         id="path12" /><path
         d="m 3095.59,2846.4 -195.57,34.28 86.24,416.91 -345.08,-525.45 201.32,-34.29 -97.78,-439.74 350.87,548.29"
         style="fill:#2d3342;fill-opacity:1;fill-rule:nonzero;stroke:none"
         id="path14" /><path
         d="m 3705.81,2797.2 c 0,-382.69 14.51,-761.97 42.98,-1137.36 68.16,12.07 134.6,27.37 199.03,45.6 26.22,360.51 39.57,724.59 39.57,1091.76 0,367.01 -13.32,730.9 -39.53,1091.22 -64.44,18.27 -130.91,33.56 -199.11,45.67 -28.43,-375.24 -42.94,-754.36 -42.94,-1136.89"
         style="fill:#2d3342;fill-opacity:1;fill-rule:nonzero;stroke:none"
         id="path16" /><path
         d="m 2015.08,3498.78 c 75.2,79.7 163.29,152.77 261.82,217.18 98.41,64.35 207.08,119.9 322.94,165.16 32.91,12.86 66.38,24.87 100.38,36.04 -42.36,2.94 -84.83,4.44 -127.34,4.44 -190,0 -377.12,-29.22 -556.17,-86.8 -153.68,-49.46 -299.76,-119.18 -435.08,-207.68 l 285.02,-320.78 c 41.42,67.25 91.16,131.72 148.43,192.44"
         style="fill:#2d3342;fill-opacity:1;fill-rule:nonzero;stroke:none"
         id="path18" /><path
         d="m 2572.86,3976.7 c 90.78,0 180.02,-6.53 267.33,-19.08 64.65,16.24 130.44,29.41 197.19,39.54 -238.89,87.56 -496.95,135.23 -766.19,135.23 -223.75,0 -439.8,-32.75 -643.56,-94.19 l 99.16,-263.47 c 254.03,129.15 541.56,201.97 846.07,201.97"
         style="fill:#2d3342;fill-opacity:1;fill-rule:nonzero;stroke:none"
         id="path20" /><path
         d="m 4969.52,2790.23 c 0,123.62 -100.22,223.81 -223.81,223.81 -123.62,0 -223.82,-100.19 -223.82,-223.81 0,-123.59 100.2,-223.81 223.82,-223.81 123.59,0 223.81,100.22 223.81,223.81"
         style="fill:#2d3342;fill-opacity:1;fill-rule:nonzero;stroke:none"
         id="path22" /><path
         d="m 4483.07,2695.89 c -10.69,29.88 -16.29,61.66 -16.29,94.35 0,32.65 5.6,64.44 16.29,94.31 -164.25,0.78 -316.37,51.92 -442.3,138.54 1.12,-75.42 1.72,-150.74 1.72,-225.88 0,-79.82 -0.66,-159.81 -1.94,-239.86 126,86.65 278.21,137.76 442.52,138.54"
         style="fill:#2d3342;fill-opacity:1;fill-rule:nonzero;stroke:none"
         id="path24" /><path
         d="m 2423.88,3510.11 c 136.22,87.52 294.16,133.78 456.79,133.78 123.43,0 242.42,-25.99 353.69,-77.26 53.36,-24.59 104.35,-54.9 151.55,-90.12 40.6,-30.25 78.58,-64.25 113.17,-101.29 54.12,-2.97 108.42,-7.19 162.23,-12.6 7.19,192.59 18.05,384.94 32.5,575.62 l 0.34,4.76 c -104.29,15.64 -212.24,23.93 -322.88,23.93 -760.24,0 -1396.52,-388.57 -1558.43,-909.2 102.98,47.07 208.08,89.27 314.87,126.31 68.16,132.69 170.17,245.08 296.17,326.07"
         style="fill:#2d3342;fill-opacity:1;fill-rule:nonzero;stroke:none"
         id="path26" /><path
         d="m 3694.2,1650.92 -0.34,4.76 c -14.51,191.24 -25.37,384.18 -32.59,577.4 -53.81,-5.41 -108.08,-9.63 -162.23,-12.6 -34.59,-37.04 -72.57,-71.04 -113.14,-101.29 -47.23,-35.22 -98.22,-65.53 -151.55,-90.12 -111.27,-51.3 -230.26,-77.29 -353.69,-77.29 -162.6,0 -320.56,46.29 -456.79,133.82 -126,80.98 -228.01,193.37 -296.17,326.1 -27.71,9.6 -55.43,19.61 -82.92,29.9 l 27.53,-68.88 -94.22,13.32 c -37.51,5.32 -74.04,9.48 -110.02,12.52 86.18,-174.2 227.29,-329.14 407.97,-453.63 l -0.38,0.25 c 109.29,-119.12 176.58,-277.09 176.58,-451.54 0,-110.17 -27.03,-213.8 -74.14,-305.45 -8.78,-17.65 -7.41,-55.12 21.06,-67.88 81.67,-35.41 171.66,-55.21 266.35,-55.21 42.73,0 84.43,4.41 124.94,12.07 l -0.19,0.97 c -9.14,44.14 -14.2,89.75 -14.2,136.57 0,174.67 66.84,333.48 176.14,452.91 l -0.75,0.16 c 73.1,-14.55 148.3,-25.34 225.19,-32.19 l -2.88,0.25 c 2.5,-94.4 24.99,-183.71 62.56,-264.6 l 59.06,59.06 c -17.15,53.61 -26.59,110.61 -26.59,169.82 0,9.82 0.28,19.52 0.78,29.22 l -3,0.12 c 34.63,-1.62 69.53,-2.47 104.72,-2.47 110.64,0 218.62,8.26 322.91,23.93"
         style="fill:#2d3342;fill-opacity:1;fill-rule:nonzero;stroke:none"
         id="path28" /><path
         d="m 6680.41,3264.88 c 0,-220.07 -163.42,-353.45 -410.15,-353.45 h -215.6 c 0,0 -44.5,0 -44.5,44.49 v 597.93 c 0,0 0,44.49 28.31,46.17 28.34,1.69 111.76,8.32 225.11,8.32 260.09,0 416.83,-80.01 416.83,-343.46 m 470.21,30.03 c 0,456.86 -300.17,676.92 -913.71,676.92 -253.41,0 -496.88,-13.31 -639.3,-26.04 0,0 -44.3,-3.99 -44.3,-48.48 V 1672.04 c 0,0 0,-44.49 44.5,-44.49 h 367.86 c 0,0 44.49,0 44.49,44.49 v 841.4 c 0,0 0,44.49 44.5,44.49 h 207.76 c 0,0 44.5,0 63.19,-40.36 l 392.8,-849.61 c 0,0 18.69,-40.41 63.19,-40.41 h 414.52 c 0,0 44.49,0 24.79,39.88 l -480.73,970.65 c 0,0 -19.75,39.93 -19.75,43.24 0,0 0,-3.31 0,0 0,0 0,3.32 42.48,16.53 204.3,63.47 387.71,290.27 387.71,597.06"
         style="fill:#2d3342;fill-opacity:1;fill-rule:nonzero;stroke:none"
         id="path30" /><path
         d="m 17321.4,1627.57 c 0,0 44.5,0 44.5,44.49 v 2245.3 c 0,0 0,44.5 -44.5,44.5 h -351.2 c 0,0 -44.5,0 -44.5,-44.5 v -854.75 c 0,0 0,-44.49 1.1,-88.94 l 14.5,-608.01 c 0,0 1.1,-44.5 -2.2,-44.5 0,0 3.3,0 0,0 0,0 -3.4,0 -21.8,40.51 -231.7,509.75 -548.5,1059.97 -827,1561.27 0,0 -21.6,38.92 -66.1,38.92 h -437.9 c 0,0 -44.5,0 -44.5,-44.5 v -2245.3 c 0,0 0,-44.49 44.5,-44.49 h 347.9 c 0,0 44.5,0 44.5,44.49 v 891.42 c 0,0 0,44.49 -0.9,88.93 l -11.6,604.71 c 0,0 -0.9,44.49 4.1,44.49 0,0 -5,0 0,0 0,0 5.1,0 23.9,-40.31 157.9,-336.54 408,-780.04 853.5,-1594.71 0,0 21.3,-39.02 65.8,-39.02 h 407.9"
         style="fill:#2d3342;fill-opacity:1;fill-rule:nonzero;stroke:none"
         id="path32" /><path
         d="m 14219.5,1594.22 c 630.2,0 923.6,350.14 923.6,1037.1 v 1286.04 c 0,0 0,44.5 -44.4,44.5 h -377.9 c 0,0 -44.5,0 -44.5,-44.5 V 2537.91 c 0,-376.8 -153.4,-570.2 -446.8,-570.2 -280.1,0 -436.9,210.07 -436.9,570.2 v 1379.45 c 0,0 0,44.5 -44.4,44.5 h -378 c 0,0 -44.5,0 -44.5,-44.5 v -1356.1 c 0,-660.24 326.9,-967.04 893.8,-967.04"
         style="fill:#2d3342;fill-opacity:1;fill-rule:nonzero;stroke:none"
         id="path34" /><path
         d="m 10618,3961.85 c 0,0 -44.5,0 -61.5,-41.13 l -216.4,-522.44 -186.7,-513.51 h -3.4 c 0,0 -3.3,0 -18.7,41.71 l -174.66,471.8 -213.29,522.34 c 0,0 -16.82,41.23 -61.31,41.23 h -441.19 c 0,0 -44.49,0 -24.84,-39.88 l 667.6,-1354.13 c 0,0 19.7,-39.88 19.7,-84.38 v -811.41 c 0,0 0,-44.49 44.49,-44.49 h 397.8 c 0,0 44.5,0 44.5,44.49 v 811.41 c 0,0 0,44.5 19.9,84.33 l 673.9,1354.22 c 0,0 19.8,39.84 -24.7,39.84 H 10618"
         style="fill:#2d3342;fill-opacity:1;fill-rule:nonzero;stroke:none"
         id="path36" /><path
         d="m 12564.7,2596.25 c 0,0 -44.5,0 -44.5,-44.5 v -496.2 c 0,0 0,-44.5 -25,-52.81 -25,-8.36 -108.4,-21.72 -211.8,-21.72 -433.4,0 -706.9,300.17 -706.9,810.35 0,526.86 290.1,806.99 727,806.99 226.7,0 450.2,-36.71 596.9,-96.67 l 14.7,335.67 c 0,0 2,44.49 -39,61.84 -92.5,39.3 -319.2,89.32 -579.3,89.32 -757,0 -1203.8,-493.51 -1203.8,-1210.5 0,-690.28 383.5,-1177.17 1163.8,-1177.17 273.4,0 556.9,60.07 678.5,104.75 0,0 41.8,15.33 41.8,59.82 v 786.33 c 0,0 0,44.5 -44.5,44.5 h -367.9"
         style="fill:#2d3342;fill-opacity:1;fill-rule:nonzero;stroke:none"
         id="path38" /><path
         d="m 8083.14,2595.12 112.3,439.02 137.95,547.24 h 9.84 c 0,0 9.86,-1.54 20.28,-44.78 l 120.94,-503.23 116.43,-438.25 h 468.38 l -402.99,1327.84 c 0,0 -12.92,44.01 -57.42,44.01 h -511.29 c 0,0 -44.49,-1.44 -57.37,-44.06 L 7639.07,2595.12 h 444.07"
         style="fill:#2d3342;fill-opacity:1;fill-rule:nonzero;stroke:none"
         id="path40" /><path
         d="m 9179.82,2231.76 h -482.08 l 147.76,-554.35 7.3,-23.16 c 0,0 7.25,-23.16 51.75,-23.16 h 414.57 c 0,0 44.49,-2.07 31.57,40.51 l -170.87,560.16"
         style="fill:#2d3342;fill-opacity:1;fill-rule:nonzero;stroke:none"
         id="path42" /><path
         d="M 7529.04,2231.76 7358.99,1671.6 c 0,0 -12.87,-40.51 31.62,-40.51 h 399.1 c 0,0 44.49,-2.07 55.54,40.99 l 144.39,559.68 h -460.6"
         style="fill:#2d3342;fill-opacity:1;fill-rule:nonzero;stroke:none"
         id="path44" /></g></g></svg>
