<?xml version="1.0" encoding="UTF-8" standalone="no"?>
<svg
   width="500"
   height="81.608696"
   viewBox="0 0 500 81.608696"
   fill="none"
   version="1.1"
   id="svg36"
   sodipodi:docname="Influxdata_latest.svg"
   inkscape:version="1.1.1 (3bf5ae0d25, 2021-09-20)"
   xmlns:inkscape="http://www.inkscape.org/namespaces/inkscape"
   xmlns:sodipodi="http://sodipodi.sourceforge.net/DTD/sodipodi-0.dtd"
   xmlns="http://www.w3.org/2000/svg"
   xmlns:svg="http://www.w3.org/2000/svg"
   xmlns:rdf="http://www.w3.org/1999/02/22-rdf-syntax-ns#"
   xmlns:cc="http://creativecommons.org/ns#"
   xmlns:dc="http://purl.org/dc/elements/1.1/">
  <metadata
     id="metadata42">
    <rdf:RDF>
      <cc:Work
         rdf:about="">
        <dc:format>image/svg+xml</dc:format>
        <dc:type
           rdf:resource="http://purl.org/dc/dcmitype/StillImage" />
      </cc:Work>
    </rdf:RDF>
  </metadata>
  <defs
     id="defs40" />
  <sodipodi:namedview
     pagecolor="#ffffff"
     bordercolor="#666666"
     borderopacity="1"
     objecttolerance="10"
     gridtolerance="10"
     guidetolerance="10"
     inkscape:pageopacity="0"
     inkscape:pageshadow="2"
     inkscape:window-width="1920"
     inkscape:window-height="1001"
     id="namedview38"
     inkscape:pagecheckerboard="0"
     showgrid="false"
     inkscape:zoom="4.318147"
     inkscape:cx="121.46414"
     inkscape:cy="20.958064"
     inkscape:window-x="-7"
     inkscape:window-y="-7"
     inkscape:window-maximized="1"
     inkscape:current-layer="svg36"
     fit-margin-top="0"
     fit-margin-left="0"
     fit-margin-right="0"
     fit-margin-bottom="0" />
  <g
     id="g61"
     transform="scale(0.72156736)">
    <path
       d="m 166.449,30.412 c -2.783,0 -5.145,-0.9091 -7.086,-2.7273 -1.877,-1.8181 -2.815,-4.0259 -2.815,-6.6233 0,-2.7273 0.938,-4.9676 2.815,-6.7208 1.941,-1.8182 4.303,-2.7273 7.086,-2.7273 2.783,0 5.112,0.9091 6.989,2.7273 1.877,1.7532 2.815,3.9935 2.815,6.7208 0,2.5974 -0.938,4.8052 -2.815,6.6233 -1.877,1.8182 -4.206,2.7273 -6.989,2.7273 z m -8.833,58.1493 V 38.3016 h 17.569 v 50.2597 z"
       fill="#020a47"
       id="path2" />
    <path
       d="M 187.002,88.5613 V 38.3016 h 17.279 l 0.194,6.2338 c 1.294,-2.4676 3.203,-4.3831 5.727,-5.7468 2.524,-1.3636 5.436,-2.0454 8.736,-2.0454 5.63,0 9.901,1.8182 12.814,5.4545 2.976,3.5714 4.465,8.8312 4.465,15.7792 v 30.5844 h -17.57 V 61.2886 c 0,-5.9091 -2.233,-8.8636 -6.698,-8.8636 -2.394,0 -4.238,0.8441 -5.533,2.5324 -1.229,1.6234 -1.844,3.9611 -1.844,7.013 v 26.5909 z"
       fill="#020a47"
       id="path4" />
    <path
       d="M 252.816,88.5613 V 52.425 h -8.057 V 38.3016 h 8.057 v -4.8701 c 0,-7.7273 1.876,-13.7013 5.63,-17.9221 3.818,-4.2208 9.189,-6.33115 16.113,-6.33115 2.007,0 3.883,0.16233 5.631,0.48701 1.812,0.25974 3.332,0.64934 4.562,1.16884 l -0.874,14.6104 c -0.712,-0.3247 -1.585,-0.552 -2.621,-0.6818 -0.97,-0.1948 -1.876,-0.2923 -2.718,-0.2923 -2.782,0 -4.853,0.8117 -6.212,2.4351 -1.294,1.6234 -1.942,4.1883 -1.942,7.6948 v 3.7013 h 11.843 V 52.425 h -11.843 v 36.1363 z m 37.178,0 V 9.66526 h 17.569 V 88.5613 Z"
       fill="#020a47"
       id="path6" />
    <path
       d="m 335.933,90.1198 c -5.501,0 -9.707,-1.7533 -12.619,-5.2598 -2.912,-3.5714 -4.368,-8.7662 -4.368,-15.5844 v -30.974 h 17.666 v 27.3701 c 0,2.987 0.518,5.1948 1.553,6.6234 1.101,1.4286 2.815,2.1429 5.145,2.1429 2.33,0 4.109,-0.8117 5.339,-2.4351 1.294,-1.6883 1.941,-4.0584 1.941,-7.1104 V 38.3016 h 17.57 v 50.2597 h -17.278 l -0.195,-6.2337 c -1.294,2.4675 -3.235,4.3831 -5.824,5.7467 -2.524,1.3637 -5.5,2.0455 -8.93,2.0455 z"
       fill="#020a47"
       id="path8" />
    <path
       d="m 376.122,88.5613 18.249,-25.909 -17.278,-24.3507 h 19.608 l 8.154,13.6364 7.96,-13.6364 h 18.637 l -17.181,24.5455 18.346,25.7142 h -19.705 l -9.125,-15.1948 -9.027,15.1948 z"
       fill="#020a47"
       id="path10" />
    <path
       d="m 463.388,90.1198 c -4.465,0 -8.477,-1.1039 -12.037,-3.3117 -3.494,-2.2078 -6.244,-5.2598 -8.25,-9.1559 -2.007,-3.961 -3.01,-8.4415 -3.01,-13.4415 0,-4.8052 1.068,-9.1558 3.204,-13.0519 2.2,-3.9611 5.144,-7.078 8.833,-9.3507 3.689,-2.3377 7.766,-3.5065 12.231,-3.5065 3.689,0 7.054,0.9091 10.095,2.7273 3.106,1.8182 5.598,4.3831 7.475,7.6948 V 9.66526 h 8.251 V 88.5613 h -8.057 l -0.194,-8.8636 c -1.942,3.3117 -4.498,5.8766 -7.669,7.6948 -3.171,1.8182 -6.795,2.7273 -10.872,2.7273 z m 2.136,-7.4026 c 3.365,0 6.309,-0.7792 8.833,-2.3377 2.524,-1.5584 4.498,-3.7337 5.921,-6.526 1.489,-2.7922 2.233,-6.0064 2.233,-9.6428 0,-3.6364 -0.744,-6.8507 -2.233,-9.6429 -1.423,-2.7922 -3.397,-4.9675 -5.921,-6.5259 -2.524,-1.5585 -5.468,-2.3377 -8.833,-2.3377 -3.301,0 -6.245,0.7792 -8.834,2.3377 -2.524,1.5584 -4.53,3.7337 -6.018,6.5259 -1.424,2.7922 -2.136,6.0065 -2.136,9.6429 0,3.6364 0.712,6.8506 2.136,9.6428 1.488,2.7923 3.494,4.9676 6.018,6.526 2.589,1.5585 5.533,2.3377 8.834,2.3377 z"
       fill="#020a47"
       id="path12" />
    <path
       d="m 527.564,90.1198 c -4.465,0 -8.477,-1.1039 -12.036,-3.3117 -3.495,-2.2078 -6.245,-5.2598 -8.251,-9.1559 -2.006,-3.961 -3.009,-8.4415 -3.009,-13.4415 0,-4.8052 1.067,-9.1558 3.203,-13.0519 2.2,-3.9611 5.145,-7.078 8.833,-9.3507 3.689,-2.3377 7.766,-3.5065 12.231,-3.5065 3.689,0 7.054,0.9091 10.095,2.7273 3.107,1.8182 5.598,4.3831 7.475,7.6948 l 0.194,-8.8636 h 8.057 v 48.7012 h -8.057 l -0.194,-8.8636 c -1.942,3.3117 -4.498,5.8766 -7.669,7.6948 -3.171,1.8182 -6.795,2.7273 -10.872,2.7273 z m 2.136,-7.4026 c 3.365,0 6.31,-0.7792 8.833,-2.3377 2.524,-1.5584 4.498,-3.7337 5.922,-6.526 1.488,-2.7922 2.232,-6.0064 2.232,-9.6428 0,-3.6364 -0.744,-6.8507 -2.232,-9.6429 -1.424,-2.7922 -3.398,-4.9675 -5.922,-6.5259 -2.523,-1.5585 -5.468,-2.3377 -8.833,-2.3377 -3.3,0 -6.245,0.7792 -8.833,2.3377 -2.524,1.5584 -4.53,3.7337 -6.019,6.5259 -1.424,2.7922 -2.135,6.0065 -2.135,9.6429 0,3.6364 0.711,6.8506 2.135,9.6428 1.489,2.7923 3.495,4.9676 6.019,6.526 2.588,1.5585 5.533,2.3377 8.833,2.3377 z"
       fill="#020a47"
       id="path14" />
    <path
       d="m 591.158,90.1198 c -5.5,0 -9.545,-1.4611 -12.134,-4.3831 -2.588,-2.9871 -3.882,-7.6299 -3.882,-13.9286 V 46.9704 h -11.066 v -7.1103 h 11.066 v -14.026 h 8.251 v 14.026 h 16.987 v 7.1103 h -16.987 v 24.1559 c 0,4.1558 0.711,7.1753 2.135,9.0584 1.489,1.8182 3.851,2.7273 7.086,2.7273 3.107,0 6.31,-0.8442 9.61,-2.5325 l 0.971,6.9156 c -1.488,0.9091 -3.3,1.5909 -5.436,2.0455 -2.071,0.5194 -4.271,0.7792 -6.601,0.7792 z"
       fill="#020a47"
       id="path16" />
    <path
       d="m 633.83,90.1198 c -4.466,0 -8.478,-1.1039 -12.037,-3.3117 -3.495,-2.2078 -6.245,-5.2598 -8.251,-9.1559 -2.006,-3.961 -3.009,-8.4415 -3.009,-13.4415 0,-4.8052 1.068,-9.1558 3.203,-13.0519 2.2,-3.9611 5.145,-7.078 8.834,-9.3507 3.688,-2.3377 7.765,-3.5065 12.23,-3.5065 3.689,0 7.054,0.9091 10.096,2.7273 3.106,1.8182 5.597,4.3831 7.474,7.6948 l 0.194,-8.8636 h 8.057 v 48.7012 h -8.057 l -0.194,-8.8636 c -1.941,3.3117 -4.498,5.8766 -7.669,7.6948 -3.17,1.8182 -6.794,2.7273 -10.871,2.7273 z m 2.135,-7.4026 c 3.365,0 6.31,-0.7792 8.834,-2.3377 2.523,-1.5584 4.497,-3.7337 5.921,-6.526 1.488,-2.7922 2.232,-6.0064 2.232,-9.6428 0,-3.6364 -0.744,-6.8507 -2.232,-9.6429 -1.424,-2.7922 -3.398,-4.9675 -5.921,-6.5259 -2.524,-1.5585 -5.469,-2.3377 -8.834,-2.3377 -3.3,0 -6.245,0.7792 -8.833,2.3377 -2.524,1.5584 -4.53,3.7337 -6.019,6.5259 -1.423,2.7922 -2.135,6.0065 -2.135,9.6429 0,3.6364 0.712,6.8506 2.135,9.6428 1.489,2.7923 3.495,4.9676 6.019,6.526 2.588,1.5585 5.533,2.3377 8.833,2.3377 z"
       fill="#020a47"
       id="path18" />
    <path
       fill-rule="evenodd"
       clip-rule="evenodd"
       d="m 82.6283,78.0419 26.2267,-6.0131 c 0.404,-0.0818 0.786,-0.2468 1.123,-0.4846 0.337,-0.2379 0.621,-0.5432 0.833,-0.8966 0.212,-0.3534 0.348,-0.7472 0.4,-1.1562 0.052,-0.409 0.018,-0.8242 -0.1,-1.2194 L 99.9577,19.8979 c -0.2013,-0.7983 -0.7111,-1.4841 -1.4175,-1.9071 -0.7064,-0.423 -1.5518,-0.5485 -2.3507,-0.3492 l -26.2154,6.0131 c -0.7936,0.2036 -1.4743,0.7131 -1.8931,1.4171 -0.4188,0.704 -0.5418,1.5452 -0.3419,2.3397 l 11.121,48.3741 c 0.2014,0.7983 0.7112,1.4841 1.4176,1.9071 0.7064,0.423 1.5517,0.5485 2.3506,0.3492 z"
       fill="#020a47"
       id="path20" />
    <path
       fill-rule="evenodd"
       clip-rule="evenodd"
       d="m 73.591,107.934 31.798,-29.4388 c 1.198,-1.2091 0.896,-1.954 -0.756,-1.3603 l -21.8537,4.9659 c -0.9037,0.2233 -1.7365,0.6707 -2.4216,1.3009 -0.685,0.6302 -1.2001,1.4229 -1.4977,2.3048 l -6.6295,21.3315 c -0.4534,1.652 0.1512,2.105 1.3605,0.896 z"
       fill="#020a47"
       id="path22" />
    <path
       fill-rule="evenodd"
       clip-rule="evenodd"
       d="M 15.5781,98.3263 63.1935,113.04 c 0.8135,0.152 1.6544,0.009 2.3724,-0.402 0.718,-0.411 1.2663,-1.065 1.547,-1.843 l 7.979,-25.542 c 0.1155,-0.3983 0.1513,-0.8156 0.1052,-1.2278 C 75.151,83.6131 75.0241,83.214 74.8234,82.851 74.6228,82.4879 74.3525,82.168 74.0281,81.9096 73.7036,81.6512 73.3313,81.4594 72.9325,81.3451 L 25.3172,66.7713 c -0.8061,-0.2305 -1.6706,-0.1329 -2.4049,0.2716 -0.7343,0.4045 -1.2788,1.0831 -1.5145,1.8875 l -7.9251,25.4879 c -0.2354,0.7974 -0.1462,1.6554 0.2481,2.3873 0.3944,0.732 1.0619,1.2785 1.8573,1.5207 z"
       fill="#020a47"
       id="path24" />
    <path
       fill-rule="evenodd"
       clip-rule="evenodd"
       d="M 0.202816,46.0442 9.85545,88.3081 c 0.30235,1.6517 1.07975,1.6517 1.50085,0 l 6.6294,-21.3317 c 0.2259,-0.9089 0.2351,-1.8582 0.027,-2.7714 -0.2082,-0.9131 -0.6279,-1.7646 -1.2255,-2.4859 L 1.56326,45.2885 C 0.505136,44.047 -0.283055,44.3925 0.202816,46.0442 Z"
       fill="#020a47"
       id="path26" />
    <path
       fill-rule="evenodd"
       clip-rule="evenodd"
       d="M 37.4315,0.865421 0.958833,34.6226 c -0.58514,0.557 -0.9286828,1.321 -0.95694137,2.1283 C -0.0263669,37.5581 0.262909,38.3443 0.807673,38.9408 L 19.044,58.664 c 0.562,0.5961 1.3366,0.9463 2.1554,0.9746 0.8188,0.0283 1.6157,-0.2676 2.2175,-0.8235 L 59.8788,25.0039 c 0.5902,-0.554 0.9373,-1.319 0.9657,-2.1279 0.0283,-0.809 -0.2645,-1.5963 -0.8146,-2.1902 L 41.826,0.973375 C 41.546,0.675387 41.2095,0.435977 40.8362,0.269043 40.4629,0.102108 40.0602,0.0109747 39.6513,9.3157e-4 39.2425,-0.00911159 38.8358,0.0621362 38.4547,0.210539 38.0736,0.358941 37.7259,0.581542 37.4315,0.865421 Z"
       fill="#020a47"
       id="path28" />
    <path
       fill-rule="evenodd"
       clip-rule="evenodd"
       d="m 72.6843,77.2862 c 1.6628,0.4534 2.7101,-0.4426 2.2674,-2.1591 L 64.4029,29.4626 C 63.9495,27.8109 62.589,27.3575 61.3905,28.5558 L 27.0341,60.467 c -1.2093,1.1982 -0.907,2.5477 0.745,3.0011 z"
       fill="#020a47"
       id="path30" />
    <path
       fill-rule="evenodd"
       clip-rule="evenodd"
       d="M 90.6181,13.5934 49.0275,0.865592 C 47.3756,0.412186 47.0733,1.01673 48.4229,2.36615 l 15.224,16.37665 c 0.6829,0.6383 1.5089,1.1037 2.4087,1.3572 0.8998,0.2536 1.8473,0.2879 2.7631,0.1001 l 21.8534,-4.955 c 1.6088,-0.4534 1.6088,-1.2091 -0.054,-1.6517 z"
       fill="#020a47"
       id="path32" />
    <path
       d="m 680.831,33.2066 c -2.257,0 -4.303,-0.5354 -6.139,-1.6064 -1.836,-1.0709 -3.289,-2.5243 -4.36,-4.3602 -1.071,-1.8358 -1.606,-3.8821 -1.606,-6.1386 0,-2.2566 0.535,-4.3029 1.606,-6.1387 1.071,-1.8359 2.524,-3.2893 4.36,-4.3602 1.836,-1.07094 3.882,-1.60641 6.139,-1.60641 2.295,0 4.341,0.53547 6.139,1.60641 1.835,1.0709 3.289,2.5243 4.36,4.3602 1.071,1.8358 1.606,3.8821 1.606,6.1387 0,2.2565 -0.535,4.3028 -1.606,6.1386 -1.071,1.8359 -2.525,3.2893 -4.36,4.3602 -1.798,1.071 -3.844,1.6064 -6.139,1.6064 z m 0,-2.1227 c 1.874,0 3.538,-0.4398 4.991,-1.3195 1.492,-0.8797 2.677,-2.0654 3.557,-3.557 0.88,-1.5299 1.32,-3.2319 1.32,-5.106 0,-1.8742 -0.44,-3.557 -1.32,-5.0487 -0.88,-1.5299 -2.065,-2.7347 -3.557,-3.6144 -1.453,-0.8796 -3.117,-1.3195 -4.991,-1.3195 -1.836,0 -3.5,0.4399 -4.991,1.3195 -1.492,0.8797 -2.678,2.0845 -3.557,3.6144 -0.88,1.4917 -1.32,3.1745 -1.32,5.0487 0,1.8741 0.44,3.5761 1.32,5.106 0.879,1.4916 2.065,2.6773 3.557,3.557 1.491,0.8797 3.155,1.3195 4.991,1.3195 z M 676.758,26.609 V 15.02 h 3.901 c 1.453,0 2.562,0.3251 3.327,0.9753 0.803,0.6502 1.205,1.5491 1.205,2.6965 0,0.7267 -0.172,1.396 -0.516,2.008 -0.345,0.5737 -0.861,1.0135 -1.549,1.3195 l 2.868,4.5897 h -2.409 l -2.525,-4.1881 h -2.237 v 4.1881 z m 3.729,-9.7531 h -1.664 v 3.7291 h 1.606 c 0.956,0 1.626,-0.153 2.008,-0.4589 0.383,-0.306 0.574,-0.7841 0.574,-1.4343 0,-1.2239 -0.842,-1.8359 -2.524,-1.8359 z"
       fill="#020a47"
       id="path34" />
  </g>
</svg>
